 <svg  version="1.0" xmlns="http://www.w3.org/2000/svg"  width="450.000000pt" height="239.000000pt" viewBox="0 0 450.000000 239.000000"  preserveAspectRatio="xMidYMid meet">  <g transform="translate(0.000000,239.000000) scale(0.050000,-0.050000)" fill="#000000" stroke="none"> <path d="M45 4741 c-71 -59 -68 -362 5 -409 27 -18 50 -42 50 -53 0 -34 -63 -47 -82 -17 -12 19 -17 3 -18 -50 0 -44 14 -94 31 -113 33 -37 22 -239 -14 -239 -9 0 -17 -18 -17 -40 0 -22 7 -40 16 -40 26 0 104 79 104 106 0 15 8 13 20 -6 21 -32 30 -7 21 58 -5 34 36 -2 76 -68 24 -39 25 -39 13 3 -15 55 21 79 48 32 12 -19 21 -25 21 -14 1 35 159 128 197 116 29 -9 29 -7 4 11 -16 12 -25 22 -20 23 6 1 26 5 45 9 19 3 35 -1 35 -10 0 -9 25 -10 55 -2 30 8 55 27 55 42 0 60 49 36 108 -53 65 -98 78 -147 39 -147 -13 0 -18 -6 -10 -13 24 -24 -66 -72 -94 -50 -14 12 -36 14 -53 3 -15 -9 -35 -13 -44 -7 -9 5 -16 -1 -16 -13 0 -12 -10 -16 -23 -8 -14 9 -18 5 -9 -9 8 -13 1 -29 -17 -35 -17 -7 -31 -24 -31 -39 0 -15 -19 -40 -42 -56 -23 -17 -36 -40 -28 -52 7 -13 3 -36 -11 -52 -13 -16 -16 -29 -6 -29 10 0 20 -22 22 -49 3 -27 22 -79 45 -115 47 -78 51 -109 12 -109 -17 0 -24 12 -17 31 9 26 6 27 -16 7 -35 -32 -101 23 -86 72 8 26 6 27 -9 6 -13 -19 -39 -23 -82 -14 -54 12 -62 9 -62 -27 0 -54 -41 -54 -55 0 -8 31 -15 35 -27 15 -12 -19 -17 -20 -18 -3 0 32 -74 100 -122 112 -27 7 -38 0 -38 -26 0 -19 18 -40 40 -46 52 -13 52 -75 0 -88 -42 -11 -59 -132 -22 -155 10 -6 14 -28 8 -49 -17 -64 31 -66 64 -3 17 34 40 61 51 61 37 0 44 -61 11 -97 -42 -47 -41 -63 6 -63 21 0 43 -14 50 -31 17 -46 52 -15 52 47 0 30 9 67 19 83 12 19 11 39 -3 56 -17 20 -14 35 10 59 46 47 86 6 103 -102 16 -108 80 -179 101 -113 17 54 64 53 81 -2 12 -39 16 -40 32 -10 33 59 57 35 57 -57 0 -93 26 -115 77 -65 21 20 33 16 63 -20 53 -65 55 -61 47 110 -8 212 -16 257 -46 294 -37 45 -14 59 56 35 33 -11 65 -15 71 -9 16 16 -48 85 -79 85 -13 0 -38 20 -54 45 -29 44 -31 44 -71 9 -45 -41 -74 -18 -54 44 6 21 2 44 -9 51 -32 20 -25 57 8 44 15 -6 39 2 52 18 55 66 159 3 159 -98 0 -29 9 -53 20 -53 11 0 20 14 20 30 0 42 47 37 90 -10 20 -22 43 -40 51 -40 32 0 -9 84 -55 114 -26 18 -43 44 -38 58 6 15 -16 53 -49 86 -37 37 -54 71 -47 90 28 72 108 8 108 -87 0 -22 11 -41 25 -42 14 0 56 -26 94 -57 l69 -58 56 53 c67 63 69 75 14 89 -27 7 -39 24 -34 48 10 56 168 53 162 -4 -3 -22 3 -64 13 -94 10 -29 13 -72 7 -96 -16 -59 -90 -45 -108 20 -9 31 -15 37 -16 15 -1 -19 -11 -35 -21 -35 -29 0 -66 -155 -45 -192 14 -25 27 -15 71 51 60 91 103 103 125 36 7 -25 30 -56 49 -70 20 -14 42 -53 49 -86 8 -34 24 -58 37 -53 23 8 24 48 1 219 -15 116 34 135 81 30 27 -62 29 -63 42 -19 10 33 24 42 51 33 31 -9 38 -1 38 40 0 68 30 65 74 -10 30 -52 39 -56 58 -30 51 70 -40 211 -135 211 -42 0 -50 64 -17 149 15 41 29 50 65 40 34 -8 61 5 104 50 32 34 79 61 104 61 25 0 53 15 64 33 10 19 31 28 49 21 40 -15 154 28 154 58 0 57 -161 115 -190 68 -19 -31 -110 -24 -123 10 -6 17 -23 30 -38 30 -58 0 -92 63 -79 143 11 62 8 75 -15 66 -37 -14 -155 89 -155 136 0 20 -13 41 -30 48 -16 6 -30 31 -30 54 -1 51 -26 96 -52 92 -43 -8 -68 3 -68 31 0 75 135 35 189 -56 27 -47 73 -106 101 -130 27 -24 50 -61 50 -83 0 -21 8 -44 18 -50 28 -17 44 48 30 122 -23 124 46 84 84 -48 40 -143 62 -168 80 -93 19 76 105 212 126 199 9 -5 22 -44 29 -86 27 -161 120 -247 136 -125 5 34 19 50 47 50 37 0 40 -12 36 -175 -5 -205 16 -222 100 -83 64 107 102 97 124 -32 14 -83 54 -132 90 -110 13 8 17 37 11 68 -7 31 1 80 20 118 22 44 26 73 13 90 -53 65 -101 173 -82 185 24 15 62 -29 119 -137 22 -41 49 -70 60 -64 30 19 22 102 -11 130 -17 14 -26 41 -20 59 6 20 -7 50 -30 71 -39 35 -39 38 -4 98 72 123 71 132 -15 132 -61 0 -81 -9 -91 -40 -7 -23 -30 -40 -53 -40 -24 0 -45 17 -51 40 -19 73 -119 54 -134 -25 -15 -79 -135 -160 -177 -118 -12 12 -39 23 -58 23 -45 0 -66 35 -61 104 4 51 -1 56 -65 56 -68 0 -70 -2 -65 -73 6 -102 -36 -106 -85 -8 -46 88 -109 109 -127 41 -6 -22 -20 -40 -31 -40 -12 0 -31 18 -43 40 -32 59 -270 60 -286 1 -7 -30 -22 -37 -62 -30 -67 12 -66 -1 8 -74 71 -72 73 -83 17 -161 -31 -44 -36 -64 -19 -75 13 -8 21 -24 18 -36 -3 -11 3 -23 14 -25 68 -12 64 -139 -5 -140 -17 0 -19 -14 -6 -48 18 -47 10 -72 -22 -72 -9 0 -17 15 -17 33 0 19 -7 27 -15 19 -8 -9 -15 -26 -15 -38 0 -13 -19 -23 -41 -24 -52 0 -228 -130 -228 -168 -2 -55 -27 -2 -32 67 -5 56 3 72 38 83 42 14 42 14 3 30 -22 8 -30 16 -17 17 30 1 149 193 131 211 -8 7 -1 10 16 7 19 -5 31 11 34 43 5 44 3 45 -12 10 -17 -38 -19 -37 -39 15 -12 30 -31 55 -43 55 -11 0 -20 16 -20 35 1 30 3 31 20 5 18 -28 31 7 23 64 -1 7 16 19 37 26 28 9 40 30 38 66 0 30 -6 43 -11 29 -6 -14 -19 -20 -29 -14 -10 6 -18 -3 -18 -20 0 -18 -24 -68 -52 -111 l-53 -79 -53 38 c-53 37 -54 37 -88 -5 -30 -38 -40 -40 -76 -17 -26 16 -37 17 -28 4 28 -46 -91 -9 -124 38 -24 35 -26 43 -4 31 16 -10 12 1 -9 25 -20 23 -38 54 -40 68 -2 15 -9 36 -16 47 -6 11 -10 40 -8 65 4 40 -5 45 -80 45 -100 0 -147 -138 -62 -184 29 -16 35 -34 27 -88 -13 -75 -9 -78 48 -47 59 32 74 -32 21 -88 -24 -25 -43 -57 -43 -72 0 -16 -17 -22 -48 -16 -42 8 -55 -6 -102 -109 -53 -115 -57 -118 -127 -112 -103 9 -112 108 -10 103 60 -2 64 2 81 90 13 73 25 93 56 94 77 1 136 89 60 89 -16 0 -52 45 -80 99 -59 117 -59 121 -20 121 20 0 30 20 30 60 0 60 0 60 -120 60 -93 0 -120 -7 -120 -30 0 -16 -13 -30 -29 -30 -18 0 -25 12 -18 30 15 40 -13 37 -68 -9z m113 -213 c-10 -12 -13 -49 -6 -83 14 -71 -14 -96 -73 -64 -52 27 -38 160 23 221 21 21 39 54 40 73 2 19 10 -1 18 -45 9 -44 8 -90 -2 -102z m176 -94 c-11 -83 -78 -162 -138 -166 -54 -4 -43 39 24 99 47 42 58 65 48 102 -16 67 7 100 46 68 21 -18 27 -48 20 -103z m1306 -20 c-1 -49 -5 -57 -20 -34 -26 40 -26 126 0 110 11 -7 20 -41 20 -76z m-87 35 c8 -20 -6 -44 -35 -65 -78 -54 -93 -48 -69 28 22 72 82 93 104 37z m-472 -172 c-32 -31 -72 -57 -88 -57 -17 0 -37 -10 -44 -22 -9 -14 -20 -15 -34 -1 -21 21 -90 -6 -120 -47 -8 -11 -15 13 -15 53 0 41 -5 88 -12 105 -21 56 63 37 89 -19 28 -61 96 -38 107 36 4 31 20 45 49 45 24 0 51 7 60 16 9 9 27 1 40 -17 21 -29 16 -43 -32 -92z m1455 78 c-6 -45 -96 -80 -96 -38 0 47 27 83 64 83 29 0 37 -11 32 -45z m-850 -187 c-13 -276 -11 -271 -112 -255 -86 14 -100 65 -31 110 24 17 45 54 48 88 15 175 102 228 95 57z m-1014 -65 c3 -47 -25 -55 -72 -21 -26 19 -26 20 3 11 25 -8 30 0 22 31 -8 29 -3 39 17 32 15 -5 29 -29 30 -53z m305 6 c48 -105 3 -231 -57 -159 -21 25 -20 37 7 67 43 47 42 56 -7 69 -50 13 -53 74 -3 74 20 0 47 -23 60 -51z m840 -177 c9 -46 -37 -77 -71 -48 -14 11 -26 38 -26 60 0 52 87 41 97 -12z m-457 -38 c0 -53 -56 -114 -104 -114 -43 0 -37 51 16 134 33 53 88 41 88 -20z m153 -165 c-13 -32 -73 -41 -73 -10 0 10 15 33 34 52 37 37 59 12 39 -42z m-753 -78 c0 -39 -108 -91 -143 -68 -21 14 -17 26 20 57 55 47 123 53 123 11z m440 -54 c0 -22 -57 -46 -73 -30 -7 6 -7 25 0 42 12 31 73 22 73 -12z m-570 -457 c0 -16 -16 -32 -35 -36 -25 -5 -35 6 -35 36 0 30 10 41 35 36 19 -4 35 -20 35 -36z"/> <path d="M2320 4720 c0 -33 4 -60 9 -60 6 0 24 27 41 60 30 57 29 60 -9 60 -32 0 -41 -13 -41 -60z"/> <path d="M2960 4740 c22 -22 40 -49 40 -60 0 -11 18 -20 40 -20 31 0 40 13 40 60 0 57 -4 60 -80 60 -80 0 -80 0 -40 -40z"/> <path d="M3565 4715 c-32 -46 -38 -67 -20 -72 14 -4 37 -22 52 -40 24 -30 29 -29 57 12 48 70 73 55 59 -34 -15 -90 14 -123 49 -57 13 25 36 57 51 72 15 15 27 44 27 65 0 22 9 39 20 39 11 0 26 2 34 5 16 6 45 -83 63 -193 17 -101 52 -112 100 -32 84 139 195 142 175 5 -11 -72 40 -93 88 -35 36 43 60 18 60 -61 0 -67 24 -90 50 -49 7 11 30 20 51 20 31 0 40 15 42 75 4 109 7 128 25 201 18 75 -25 144 -91 144 -44 0 -45 -8 -13 -60 34 -53 -6 -99 -53 -61 -37 31 -41 94 -6 108 14 5 -13 11 -60 11 -77 2 -85 -3 -85 -46 0 -69 -20 -112 -52 -112 -16 0 -28 20 -28 48 0 111 -4 112 -287 112 l-263 -1 -45 -64z m515 -50 c0 -25 -10 -45 -23 -45 -13 0 -18 6 -11 13 7 7 3 29 -8 50 -24 46 -2 95 24 54 10 -15 18 -47 18 -72z"/> <path d="M4711 4735 c-29 -89 -26 -118 7 -103 18 8 53 14 78 13 27 0 59 19 77 47 17 26 44 48 59 48 50 0 30 -82 -35 -142 -56 -53 -61 -67 -52 -149 14 -122 25 -127 99 -51 132 135 217 150 181 32 -13 -43 -14 -74 -3 -82 19 -11 138 102 138 132 0 39 55 60 80 30 66 -80 139 17 82 108 -34 53 -2 86 71 73 76 -15 81 -8 33 49 -58 67 -185 56 -180 -15 3 -43 -5 -55 -36 -55 -30 0 -40 13 -39 55 1 52 -5 55 -85 55 -70 0 -83 -6 -72 -33 16 -43 -50 -95 -85 -66 -14 11 -20 38 -15 60 17 65 -283 59 -303 -6z"/> <path d="M8944 4127 c-52 -60 -46 -80 14 -48 23 12 42 40 42 62 0 49 -1 49 -56 -14z"/> <path d="M691 3996 c-17 -25 -31 -54 -31 -65 0 -11 15 1 33 27 25 36 36 40 49 19 14 -21 17 -20 18 7 0 54 -35 60 -69 12z"/> <path d="M3274 3927 c-30 -16 -64 -23 -74 -17 -11 7 -20 4 -20 -6 0 -10 -42 -18 -94 -18 -53 0 -97 -10 -102 -23 -4 -13 -25 -23 -46 -23 -21 0 -38 -10 -38 -22 0 -14 -19 -18 -50 -10 -30 8 -50 4 -50 -9 0 -14 -33 -18 -90 -12 -56 6 -90 2 -90 -11 0 -13 -11 -11 -30 4 -21 17 -30 18 -30 2 0 -12 -22 -22 -50 -22 -27 0 -50 -11 -50 -25 -1 -19 -5 -19 -17 1 -13 20 -25 14 -49 -23 -29 -44 -141 -87 -249 -97 -14 -2 -25 -9 -25 -18 0 -8 -16 -12 -35 -9 -43 6 -89 -55 -73 -97 15 -40 37 -40 74 -3 16 16 64 31 107 33 88 5 247 69 247 100 0 11 10 14 22 7 12 -8 29 -3 38 11 13 21 171 40 400 48 28 1 64 17 80 37 19 22 64 37 122 40 51 3 105 16 120 28 52 42 341 21 425 -31 66 -41 84 -44 160 -25 104 26 207 3 288 -66 36 -30 95 -52 166 -61 174 -22 218 -55 219 -165 0 -61 4 -65 75 -67 41 -2 85 -4 96 -5 45 -6 82 -66 78 -126 -4 -49 4 -66 37 -74 61 -16 73 1 51 72 -11 36 -21 76 -22 90 -1 14 -14 25 -28 25 -15 0 -27 13 -27 28 0 16 -11 33 -25 39 -19 8 -19 10 1 11 15 1 21 11 15 21 -19 29 -70 2 -58 -31 16 -39 -18 -35 -54 7 -17 20 -57 56 -90 81 -57 44 -57 46 -9 32 69 -19 93 -23 75 -13 -8 5 -10 17 -4 27 6 10 -7 18 -30 18 -25 0 -41 13 -41 34 0 31 -2 31 -25 0 -18 -24 -34 -28 -55 -14 -26 17 -25 19 5 20 40 0 48 32 10 36 -54 5 -163 40 -135 43 21 3 18 9 -10 21 -22 9 -61 11 -86 6 -35 -8 -49 -1 -58 32 -6 23 -12 42 -13 43 -2 0 -39 6 -83 12 -44 6 -97 20 -117 31 -20 10 -42 14 -48 8 -6 -6 -23 4 -38 23 -26 33 -26 33 -15 0 13 -38 -21 -49 -43 -13 -10 16 -20 14 -33 -5 -15 -21 -21 -21 -29 -2 -6 14 -32 25 -59 25 -32 0 -48 11 -48 35 -1 27 -4 29 -18 8 -10 -17 -22 -20 -29 -7 -15 24 -191 21 -231 -4 -19 -12 -24 -11 -15 4 23 36 -14 42 -73 11z"/> <path d="M8925 3935 c3 -14 -6 -23 -20 -20 -14 3 -25 -9 -25 -26 0 -17 9 -26 20 -19 11 7 20 3 20 -9 0 -11 -19 -21 -41 -21 -23 0 -36 9 -29 20 7 11 -1 14 -19 8 -17 -7 -26 -20 -20 -30 6 -10 3 -18 -8 -18 -11 0 -25 11 -31 25 -8 17 -15 18 -23 3 -35 -74 -169 -142 -169 -87 0 11 -23 19 -51 19 -29 0 -46 9 -39 20 7 11 3 20 -9 20 -11 0 -21 -7 -21 -16 0 -9 -56 -14 -125 -11 -173 9 -195 13 -195 36 0 12 -9 8 -19 -8 -15 -24 -23 -24 -49 -2 -21 16 -41 19 -57 7 -14 -10 -74 -16 -135 -13 -153 8 -188 14 -205 37 -9 13 -14 11 -15 -3 0 -13 -23 -21 -51 -18 -28 3 -66 -9 -84 -27 -18 -17 -40 -33 -49 -34 -9 -2 -23 -5 -31 -8 -8 -2 -31 -3 -50 -1 -40 4 -48 -31 -10 -44 14 -5 61 4 105 20 97 34 259 38 336 7 66 -26 147 -10 171 32 14 26 21 25 51 -5 45 -45 156 -68 237 -50 40 9 88 4 125 -11 33 -14 92 -21 131 -15 49 8 79 2 96 -19 29 -35 103 -22 103 18 0 46 79 73 172 59 l88 -13 0 72 c0 43 -8 67 -20 60 -11 -7 -20 -4 -20 7 0 11 9 23 20 26 11 4 2 18 -20 32 -32 20 -39 20 -35 0z"/> <path d="M3340 3622 c0 -23 57 -69 91 -74 14 -2 22 7 17 21 -12 31 -108 78 -108 53z"/> <path d="M2670 3594 c-22 -13 -44 -27 -49 -30 -6 -3 3 -14 19 -24 35 -22 100 11 100 51 0 34 -16 35 -70 3z"/> <path d="M2882 3585 c-1 -14 -9 -24 -17 -23 -8 2 -37 1 -65 0 l-50 -3 57 -51 c33 -29 71 -45 88 -39 17 7 45 -1 63 -17 25 -23 39 -24 63 -5 44 34 37 85 -11 75 -91 -17 -170 -8 -133 16 16 10 23 30 17 45 -8 19 -11 20 -12 2z"/> <path d="M3938 3503 c28 -51 76 -88 105 -79 14 5 1 29 -34 62 -68 62 -99 70 -71 17z"/> <path d="M8463 3462 c-19 -12 -18 -21 6 -41 17 -14 26 -34 20 -43 -6 -10 0 -19 15 -19 14 -1 -8 -14 -50 -30 -82 -30 -127 -23 -127 20 0 15 11 23 24 18 14 -5 31 0 38 12 15 23 -73 30 -96 7 -23 -23 -101 -22 -131 1 -21 17 -31 17 -37 -2 -5 -14 -16 -20 -25 -15 -30 19 -173 -13 -173 -38 0 -16 46 -24 141 -25 101 -1 170 -14 239 -45 76 -35 102 -39 125 -20 57 47 181 54 292 17 58 -20 130 -31 160 -25 40 8 59 2 68 -22 25 -65 48 -29 48 76 l0 108 -100 7 c-61 4 -97 -1 -93 -13 5 -11 16 -18 27 -16 10 2 29 -14 42 -35 22 -35 20 -36 -27 -18 -29 10 -83 19 -121 19 -42 0 -65 8 -58 20 7 11 4 20 -7 20 -11 0 -35 6 -55 13 -23 10 -30 6 -20 -10 8 -12 6 -23 -5 -23 -10 0 -24 13 -29 28 -8 20 3 27 37 23 27 -3 49 1 49 10 0 21 -60 41 -83 27 -10 -6 -30 -2 -44 9 -13 11 -36 14 -50 5z"/> <path d="M2278 3440 c-17 -10 -64 -21 -105 -23 -79 -6 -89 -19 -43 -57 21 -17 30 -18 30 -2 0 36 116 26 141 -13 21 -33 22 -33 11 0 -12 39 9 46 42 13 15 -15 25 -15 35 0 7 12 1 22 -15 22 -15 0 -36 18 -46 39 -13 28 -27 34 -50 21z"/> <path d="M2569 3419 c-15 -25 -19 -23 71 -55 96 -35 111 -37 107 -14 -6 32 128 18 185 -19 37 -25 49 -48 44 -87 -6 -53 -4 -54 114 -55 66 -1 104 2 84 7 -23 4 -33 19 -26 37 6 16 3 24 -7 18 -10 -7 -24 -3 -30 8 -8 13 -30 13 -63 0 -45 -17 -49 -15 -38 21 9 28 4 40 -19 40 -17 0 -31 12 -31 28 0 47 -214 73 -242 30 -9 -15 -27 -9 -56 20 -47 47 -73 53 -93 21z"/> <path d="M7515 3414 c-12 -29 -22 -32 -56 -13 -35 19 -44 16 -52 -18 -7 -25 -22 -36 -40 -29 -17 7 -24 24 -17 44 10 25 7 27 -13 7 -60 -60 -38 -89 60 -77 162 19 352 22 379 4 22 -13 22 -9 1 26 -22 35 -43 41 -131 37 -80 -4 -106 2 -111 25 -5 24 -9 23 -20 -6z"/> <path d="M5210 3380 c-24 -27 -28 -40 -11 -40 14 0 20 -13 14 -29 -7 -20 -1 -25 19 -17 17 6 25 24 19 40 -6 15 -2 23 9 16 11 -7 20 1 20 18 0 48 -32 54 -70 12z"/> <path d="M3153 3363 c-27 -30 -29 -41 -9 -57 27 -21 146 -49 127 -30 -6 5 5 21 24 35 28 21 29 30 7 57 -36 43 -108 41 -149 -5z"/> <path d="M3725 3366 c-25 -5 -45 -18 -45 -29 0 -12 -24 -15 -59 -7 -87 19 -155 -22 -113 -68 35 -38 43 -71 13 -53 -35 22 -46 -33 -13 -66 26 -26 73 -33 213 -33 192 0 246 38 61 43 -96 2 -182 44 -182 88 0 34 113 61 169 40 47 -18 54 -17 44 9 -6 16 -2 30 10 30 14 0 13 10 -3 30 -14 17 -31 29 -37 27 -7 -1 -33 -6 -58 -11z"/> <path d="M4010 3324 c-22 -5 -52 -26 -66 -47 -15 -21 -35 -32 -45 -26 -11 6 -19 7 -19 2 0 -5 -6 -25 -13 -45 -9 -22 -6 -30 8 -21 12 7 25 3 29 -10 5 -13 23 -26 42 -28 19 -3 30 2 24 11 -6 10 -2 23 8 29 20 12 87 135 77 141 -3 1 -23 -1 -45 -6z"/> <path d="M2390 3253 c-36 -27 -36 -29 10 -43 31 -10 51 -7 56 7 4 13 20 23 36 23 15 0 28 9 28 20 0 29 -86 24 -130 -7z"/> <path d="M4940 3231 c0 -17 -9 -31 -20 -31 -11 0 -20 -22 -20 -50 0 -52 27 -66 52 -27 9 14 5 18 -9 9 -32 -20 -29 1 8 57 21 31 24 52 10 60 -12 7 -21 -1 -21 -18z"/> <path d="M8088 3177 c-5 -8 13 -11 40 -6 41 8 58 -6 105 -86 31 -52 68 -97 82 -100 38 -8 30 19 -20 65 -67 61 -99 125 -69 137 13 6 -10 9 -52 8 -42 -2 -81 -10 -86 -18z"/> <path d="M1095 3164 c-88 -10 -131 -88 -64 -116 69 -28 230 21 228 69 -1 30 -4 30 -24 -1 -22 -31 -26 -30 -54 10 -22 31 -47 42 -86 38z"/> <path d="M3300 3155 l-50 -19 45 -17 c47 -18 105 -6 105 21 0 28 -49 35 -100 15z"/> <path d="M1963 3128 c-37 -15 -95 -28 -127 -28 -47 0 -58 -7 -48 -32 10 -25 3 -30 -27 -22 -24 6 -38 1 -35 -13 3 -15 -36 -23 -116 -23 -98 0 -121 -6 -126 -35 -4 -20 -15 -30 -26 -24 -10 7 -13 20 -7 30 6 11 1 19 -11 19 -12 0 -16 10 -9 22 10 15 0 18 -28 9 -24 -8 -43 -5 -43 5 0 10 -22 14 -50 9 -27 -5 -50 -18 -50 -27 0 -10 -7 -17 -15 -16 -89 14 -129 -4 -116 -54 8 -33 5 -47 -8 -38 -12 7 -21 3 -21 -9 0 -11 14 -21 30 -21 17 0 30 9 30 20 0 11 18 20 39 20 27 0 36 -10 28 -30 -6 -16 -1 -30 11 -30 12 0 22 8 22 17 0 9 50 17 110 18 61 1 110 -5 110 -12 0 -7 25 -14 55 -16 30 -1 73 -4 95 -6 22 -2 103 6 180 19 77 12 151 23 164 24 13 2 20 10 15 18 -5 8 10 18 34 22 24 3 48 19 53 34 7 20 -1 24 -24 15 -20 -7 -29 -4 -22 7 18 30 64 24 77 -10 15 -38 73 -16 73 27 1 27 4 28 18 5 10 -15 27 -21 40 -14 14 9 18 1 10 -22 -10 -33 -9 -33 11 -2 15 23 38 30 76 22 77 -15 190 -13 280 5 41 9 92 13 112 11 22 -3 32 3 24 16 -7 11 -59 18 -117 16 -57 -3 -126 6 -154 21 -29 14 -108 24 -187 22 -98 -2 -142 5 -155 25 -12 20 -17 21 -18 3 0 -34 -54 -32 -74 3 -14 25 -25 25 -83 0z"/> <path d="M8935 3088 c-27 -27 -16 -66 25 -88 35 -19 40 -15 40 30 0 29 -8 47 -18 41 -10 -6 -22 -2 -26 10 -4 12 -13 15 -21 7z"/> <path d="M8563 3037 c1 -26 -1 -60 -5 -75 -5 -19 15 -34 57 -43 69 -15 87 11 41 57 -33 33 -57 30 -43 -6 6 -16 2 -30 -9 -30 -22 0 -21 36 1 73 8 12 1 34 -15 47 -25 21 -29 17 -27 -23z"/> <path d="M2352 2809 c-328 -81 -601 -152 -607 -157 -22 -22 22 -52 77 -52 147 0 156 -39 125 -547 -12 -199 -16 -213 -55 -213 -54 0 -57 -642 -3 -770 21 -50 24 -84 10 -115 -17 -41 -18 -41 -17 -5 5 81 -1 96 -27 74 -14 -12 -131 -25 -259 -31 -129 -5 -242 -14 -252 -20 -32 -20 -106 48 -94 86 9 30 1 35 -47 31 -37 -3 -67 8 -84 31 -14 19 -37 31 -52 25 -15 -6 -32 3 -38 19 -11 29 -85 32 -128 5 -12 -7 -21 -6 -19 4 9 53 -10 80 -77 109 -51 23 -78 26 -83 11 -4 -12 2 -25 15 -30 40 -13 25 -64 -18 -64 -23 0 -37 8 -31 17 6 9 -2 34 -18 55 -28 37 -29 37 -29 -6 -1 -35 -12 -43 -60 -42 -64 2 -99 50 -51 69 30 11 43 87 15 87 -23 0 -130 -70 -179 -118 -24 -23 -54 -42 -65 -42 -42 0 -20 -36 29 -48 32 -8 50 -27 50 -52 0 -42 29 -54 50 -20 7 11 23 20 36 20 15 0 17 -6 4 -15 -11 -8 -20 -27 -20 -43 0 -43 -84 -66 -118 -31 -16 16 -40 29 -53 29 -17 0 -18 7 -3 26 14 16 15 36 3 55 -10 16 -19 19 -19 6 0 -26 -74 -13 -92 17 -20 32 9 43 42 16 38 -32 60 -14 40 34 -11 26 -17 29 -24 10 -8 -20 -23 -15 -59 19 -35 33 -53 39 -64 22 -8 -13 -35 -20 -59 -16 -29 6 -44 -1 -44 -20 0 -16 13 -29 28 -29 16 0 33 -11 37 -25 11 -32 -4 -75 -27 -75 -9 0 -12 13 -6 28 6 15 2 33 -8 39 -10 6 -18 -24 -18 -67 0 -43 7 -74 15 -69 22 13 38 -41 20 -70 -13 -20 -18 -20 -27 2 -7 18 -11 15 -12 -9 -1 -20 7 -54 19 -75 14 -27 14 -39 0 -39 -12 0 -21 -10 -21 -22 0 -16 9 -15 30 2 16 14 48 20 70 14 33 -8 36 -4 20 27 -29 54 -60 67 -60 25 -1 -29 -4 -30 -18 -8 -18 29 19 90 38 64 16 -22 98 -22 111 0 8 13 23 11 41 -3 22 -19 30 -16 41 13 9 21 4 39 -10 44 -26 8 -11 44 19 44 11 0 15 -8 9 -18 -6 -10 11 -23 37 -30 61 -15 82 -86 30 -103 -70 -22 -41 -51 37 -38 69 12 72 11 37 -16 -24 -18 -34 -42 -26 -62 9 -24 -2 -36 -39 -46 -60 -15 -87 17 -71 80 10 38 7 40 -22 16 -18 -14 -41 -21 -52 -14 -10 6 -25 3 -31 -8 -7 -10 -27 -14 -45 -7 -19 7 -27 5 -21 -7 7 -10 4 -32 -6 -48 -14 -22 -18 -15 -19 26 0 30 -10 55 -22 55 -13 0 -19 -21 -13 -50 10 -52 -3 -64 -36 -31 -12 12 -21 -10 -24 -60 -4 -44 3 -79 15 -79 11 0 20 10 20 22 0 14 19 17 52 9 34 -8 47 -5 38 9 -15 25 84 133 103 114 7 -7 2 -25 -10 -40 -12 -15 -17 -34 -9 -41 7 -7 -8 -13 -34 -13 -26 0 -41 -6 -34 -13 35 -35 -30 -89 -92 -77 -58 11 -61 9 -28 -17 22 -18 27 -32 13 -37 -46 -15 -33 -141 15 -146 24 -2 40 4 35 12 -5 8 0 21 11 28 11 7 15 23 7 34 -8 13 -4 16 10 8 13 -8 18 -35 11 -63 -9 -36 -3 -52 25 -62 20 -8 49 -31 63 -51 15 -20 38 -36 53 -36 14 0 38 -14 52 -31 20 -24 29 -26 41 -5 11 17 15 10 13 -19 -4 -50 -88 -65 -106 -19 -15 39 -103 26 -159 -23 -28 -23 -66 -44 -85 -45 -36 -1 -33 -3 52 -30 22 -7 23 -14 3 -38 -21 -25 -18 -30 19 -30 27 0 38 8 29 23 -10 16 2 19 41 9 37 -9 50 -7 41 9 -8 12 -2 20 13 18 66 -9 95 2 84 31 -9 25 -2 27 36 12 26 -10 45 -27 43 -38 -3 -11 8 -25 25 -31 19 -8 29 1 29 26 0 62 36 66 67 8 27 -53 28 -53 42 -11 10 32 30 44 72 44 33 0 59 10 59 21 0 12 -8 16 -18 10 -25 -15 -38 74 -18 120 15 34 16 34 8 -6 -6 -31 1 -45 22 -45 23 0 27 13 17 52 -9 37 -6 47 11 37 16 -10 19 -7 9 9 -8 13 -4 36 9 52 29 35 100 -1 100 -51 0 -17 11 -43 25 -58 17 -18 17 -23 1 -14 -13 8 -29 5 -36 -7 -7 -11 3 -20 23 -20 31 0 31 -3 -4 -29 -22 -17 -48 -30 -59 -30 -11 0 -7 8 10 18 24 15 25 24 5 44 -14 14 -26 43 -26 66 -2 41 -2 41 -19 1 -27 -62 -25 -108 2 -70 18 25 20 24 10 -7 -7 -20 -13 -51 -13 -70 -1 -23 -7 -20 -20 12 -10 25 -29 45 -43 45 -16 0 -18 -6 -6 -15 37 -27 69 -103 58 -134 -10 -25 4 -31 67 -31 83 0 150 45 101 68 -20 9 -21 15 -1 24 19 9 18 18 -4 40 -22 22 -25 42 -11 79 10 27 14 64 8 84 -8 25 -6 28 7 10 13 -19 24 -14 44 23 23 42 22 54 -6 82 -27 27 -33 28 -33 4 0 -60 -55 -80 -93 -36 -53 62 -57 188 -6 172 22 -7 39 -3 39 9 0 30 -80 26 -89 -4 -4 -14 -13 -51 -20 -82 -9 -41 -21 -53 -44 -45 -23 9 -28 4 -19 -19 15 -41 -21 -109 -59 -109 -25 0 -39 37 -31 85 1 8 -9 13 -23 10 -14 -3 -22 8 -19 23 5 25 1 25 -30 1 -20 -15 -38 -29 -41 -30 -3 -2 9 -16 28 -31 29 -24 32 -24 18 0 -11 18 -8 24 9 19 17 -6 27 -46 28 -108 1 -59 11 -97 24 -95 12 2 21 -9 21 -25 0 -23 -6 -24 -30 -4 -25 21 -28 19 -19 -7 7 -17 4 -44 -6 -60 -13 -21 -17 -16 -18 19 0 37 -9 45 -38 38 -21 -6 -50 -2 -65 7 -27 17 15 28 78 19 14 -1 25 7 25 18 0 12 -8 21 -18 21 -10 0 -16 16 -15 35 2 24 -11 34 -42 33 -25 -2 -45 6 -45 17 0 11 -22 15 -49 10 -33 -6 -46 -2 -37 13 6 12 0 11 -15 -3 -37 -34 -60 -31 -46 5 7 19 -1 30 -21 30 -18 0 -32 10 -32 22 0 12 12 18 28 12 15 -6 37 -1 50 12 16 16 22 13 22 -11 0 -31 30 -48 116 -64 37 -7 38 -4 13 45 -30 57 -8 90 47 69 20 -8 26 -4 16 12 -20 32 -82 29 -112 -7 -14 -17 -39 -30 -56 -30 -25 0 -24 6 6 40 35 39 35 40 -9 40 -32 0 -42 9 -34 29 6 17 1 36 -11 44 -15 8 -7 19 21 30 23 8 43 25 43 37 0 15 -13 15 -42 -1 -48 -25 -56 -21 -67 38 -11 57 22 74 48 24 18 -33 31 -36 73 -20 43 16 50 13 47 -16 -6 -61 0 -85 23 -85 15 0 13 12 -5 33 -23 29 -23 32 2 24 17 -6 36 -32 43 -58 11 -44 13 -42 20 19 9 81 58 111 58 35 0 -28 13 -64 30 -80 16 -17 30 -44 30 -62 0 -17 10 -31 21 -31 12 0 16 9 9 20 -7 11 -3 20 9 20 40 0 21 41 -29 64 -61 27 -62 39 -8 73 23 14 37 18 31 9 -19 -32 16 -65 48 -45 16 10 19 19 6 19 -14 0 -19 17 -12 43 7 28 4 39 -11 30 -12 -8 -29 -1 -38 14 -9 15 -29 33 -46 39 -16 7 6 10 50 8 79 -4 80 -3 84 70 3 58 -2 72 -25 63 -38 -15 -37 21 1 53 24 20 30 20 30 0 0 -19 7 -19 31 1 26 21 30 21 25 0 -3 -14 5 -30 17 -35 15 -5 20 6 13 33 -6 24 -27 41 -50 41 -29 0 -37 9 -28 32 7 17 12 35 12 40 0 4 14 8 32 8 17 0 27 11 22 25 -5 14 -21 22 -36 19 -19 -5 -21 0 -8 13 28 28 130 5 130 -29 0 -16 -10 -28 -21 -28 -12 0 -16 9 -9 20 7 11 3 20 -9 20 -11 0 -21 -13 -21 -30 0 -44 8 -61 26 -55 10 4 11 -3 4 -15 -14 -23 16 -27 38 -5 9 8 39 15 68 15 37 0 55 12 61 40 7 39 6 39 -32 4 -35 -31 -42 -32 -65 -5 -18 23 -19 31 -1 31 13 0 18 8 12 18 -7 11 12 12 44 4 62 -17 90 -98 61 -179 -15 -41 -11 -46 39 -42 84 5 88 2 64 -43 -22 -40 -23 -40 -64 -5 -40 37 -41 36 -28 -17 15 -59 -17 -94 -53 -58 -16 16 -16 22 2 22 13 0 24 9 24 20 0 11 -11 18 -25 15 -14 -3 -23 6 -20 20 3 14 -6 25 -20 25 -14 1 -2 18 25 40 28 22 38 39 24 40 -15 0 -20 10 -12 23 10 16 4 20 -19 11 -19 -8 -33 -3 -34 12 0 13 -13 7 -30 -15 -16 -21 -28 -62 -26 -90 2 -47 3 -47 11 -6 5 25 16 45 26 45 9 0 11 -18 6 -41 -7 -26 3 -51 26 -69 24 -18 28 -29 12 -29 -18 -1 -20 -11 -8 -34 10 -18 15 -52 11 -75 -6 -33 -3 -31 14 8 21 49 22 49 45 9 27 -46 76 -52 90 -12 6 20 -3 23 -38 12 -39 -12 -44 -10 -25 13 24 28 26 37 28 83 0 15 10 12 27 -10 14 -19 33 -28 42 -20 9 8 10 -1 3 -22 -7 -20 -13 -57 -13 -82 0 -37 -9 -44 -48 -36 -26 5 -54 -2 -63 -16 -10 -17 -6 -21 13 -11 15 8 12 2 -7 -14 -19 -16 -35 -34 -35 -41 0 -28 47 -11 83 30 24 28 37 33 37 16 0 -42 67 62 70 108 4 54 50 68 50 15 0 -23 10 -42 21 -42 12 0 15 -10 8 -21 -7 -12 -26 -17 -43 -10 -21 8 -18 -7 12 -56 23 -37 42 -84 42 -103 0 -29 5 -31 30 -10 17 14 30 17 30 7 -1 -24 -32 -71 -47 -69 -7 1 -13 -5 -13 -13 0 -8 8 -15 18 -15 10 0 25 -7 34 -15 8 -8 -1 -15 -20 -15 -21 0 -45 -25 -58 -59 -26 -70 -194 -87 -194 -20 0 49 -23 62 -58 34 -28 -22 -29 -21 -5 9 14 19 20 44 12 57 -8 14 -26 2 -49 -34 -20 -33 -28 -66 -18 -78 10 -13 7 -32 -7 -46 -25 -25 -15 -36 55 -73 12 -6 10 -15 -5 -22 -14 -6 -25 -23 -25 -38 0 -15 -10 -30 -22 -34 -13 -4 23 -8 79 -8 77 0 97 5 81 24 -11 13 -14 48 -7 76 8 33 5 52 -9 52 -12 0 -22 -18 -22 -40 0 -22 -7 -40 -16 -40 -41 0 -9 107 33 110 51 4 97 -39 64 -59 -34 -22 -24 -51 14 -39 32 10 32 9 -1 -18 -20 -17 -28 -35 -17 -42 31 -19 143 11 143 38 0 37 55 52 68 19 6 -16 27 -29 46 -28 33 0 32 3 -4 32 -40 32 -40 32 0 18 67 -25 99 -26 113 -6 7 11 18 -6 25 -38 13 -59 132 -100 132 -46 0 12 9 16 20 9 30 -18 24 9 -8 41 -29 29 -21 117 8 99 9 -6 11 9 5 32 -10 38 -7 40 32 15 24 -15 34 -30 23 -34 -11 -3 -20 -26 -20 -50 -1 -35 -4 -37 -20 -13 -11 17 -20 20 -20 7 0 -38 54 -73 66 -43 8 18 11 17 12 -5 1 -17 -9 -42 -22 -55 -19 -19 -18 -24 5 -24 36 1 100 39 65 40 -15 0 -20 14 -12 33 10 26 17 22 40 -20 15 -29 33 -53 40 -53 7 0 7 6 -1 13 -7 8 1 35 17 60 32 49 28 54 -44 48 -25 -2 -61 6 -80 19 -29 18 -22 20 37 11 58 -10 80 -4 100 25 15 20 42 42 59 49 21 7 31 30 27 63 -3 29 3 47 13 41 28 -17 22 7 -16 65 -34 52 -34 52 10 28 25 -13 40 -35 33 -48 -7 -13 2 -7 20 15 17 21 31 28 31 15 0 -13 9 -24 20 -24 11 0 20 19 20 41 0 23 9 36 20 29 11 -7 18 9 16 37 -3 29 -13 45 -25 37 -42 -26 -73 -20 -97 18 -13 21 -32 38 -42 38 -10 0 -13 -6 -6 -13 8 -7 2 -27 -11 -44 -16 -20 -17 -26 -2 -17 13 8 28 -1 35 -19 12 -29 9 -30 -33 -2 -54 35 -77 148 -27 128 18 -6 32 -2 32 10 0 12 13 16 28 10 36 -13 62 49 29 69 -31 19 -57 4 -57 -33 0 -16 -13 -29 -28 -29 -16 0 -41 -3 -55 -7 -15 -3 -20 -3 -12 2 8 5 15 21 15 37 0 15 7 26 15 23 17 -6 25 12 24 50 0 14 -17 5 -38 -20 -40 -48 -71 -57 -91 -25 -7 11 1 15 16 9 16 -6 35 4 42 22 9 24 4 30 -18 22 -16 -7 -30 -3 -30 8 0 29 -44 14 -86 -31 -32 -35 -32 -32 3 21 l40 61 -59 4 c-45 4 -63 -6 -77 -41 -10 -25 -19 -34 -20 -20 -2 36 -41 31 -41 -5 0 -40 -32 -38 -48 2 -17 45 -61 23 -65 -34 -2 -28 15 -62 40 -83 27 -21 33 -34 16 -35 -23 0 -23 -6 -2 -31 20 -24 29 -25 41 -6 21 33 30 21 47 -58 11 -52 8 -65 -17 -65 -18 0 -32 -16 -32 -35 0 -21 -7 -26 -15 -14 -21 29 -165 36 -165 8 0 -13 18 -27 40 -33 50 -13 54 -86 5 -86 -19 0 -57 -6 -83 -13 l-48 -13 47 47 c28 28 37 50 24 54 -17 6 -17 20 -1 56 12 26 30 43 40 36 10 -6 38 6 62 26 37 32 40 32 16 2 -24 -31 -21 -35 24 -35 29 0 58 11 66 23 10 16 4 20 -17 12 -18 -7 -36 0 -43 16 -6 16 -22 27 -36 24 -14 -3 -25 11 -23 31 2 28 -3 31 -25 12 -31 -26 -97 12 -77 44 6 10 -5 18 -25 19 -34 0 -34 2 2 29 31 23 33 34 13 58 -13 17 -19 48 -12 70 7 22 4 58 -8 79 -15 30 -13 42 9 50 17 7 30 3 30 -8 0 -10 15 -19 32 -19 27 0 29 -5 7 -31 -31 -38 3 -82 44 -57 15 9 39 19 54 21 45 7 53 27 27 68 -29 46 10 56 53 14 14 -14 24 -16 22 -5 -9 48 3 91 21 80 12 -7 16 -20 10 -29 -5 -9 9 -38 32 -64 22 -26 36 -36 29 -23 -9 17 9 20 64 12 75 -11 140 -46 86 -46 -53 0 2 -29 57 -30 31 -1 71 -17 90 -36 19 -18 42 -34 52 -34 27 0 -1 76 -33 88 -16 7 -24 21 -17 32 7 11 -8 28 -34 38 l-46 18 50 21 c28 11 38 21 24 22 -16 0 -20 11 -11 26 10 17 4 16 -19 -2 -21 -17 -34 -19 -34 -6 0 11 15 29 33 39 21 12 29 34 22 61 -14 54 12 71 65 43 33 -18 40 -15 40 14 0 22 6 28 15 14 20 -30 165 -56 165 -30 0 12 13 16 30 9 16 -6 24 -21 17 -32 -9 -14 -1 -17 20 -9 18 7 33 3 33 -8 0 -11 9 -15 21 -7 11 7 34 2 50 -12 23 -19 29 -18 29 9 0 38 27 41 64 7 64 -58 105 -70 129 -38 19 27 28 27 55 5 23 -19 32 -20 32 -3 0 13 8 18 18 12 10 -6 23 3 30 20 6 18 3 26 -8 19 -11 -7 -20 2 -20 19 0 17 13 31 29 31 44 0 34 -116 -12 -131 -21 -7 -32 -21 -25 -32 8 -13 -2 -13 -28 1 -57 30 -60 29 -49 -28 6 -33 23 -50 49 -50 21 0 34 -8 28 -17 -6 -10 -46 -15 -90 -11 -54 4 -82 -3 -90 -23 -6 -16 0 -26 14 -24 13 3 21 -8 18 -23 -5 -22 0 -23 21 -6 28 23 115 25 115 3 0 -7 14 -12 30 -12 17 0 30 8 30 18 0 9 9 12 20 5 11 -7 20 -3 20 8 0 12 34 18 81 14 64 -5 85 1 102 34 24 44 39 30 67 -66 12 -41 10 -45 -12 -25 -31 30 -106 34 -88 5 7 -11 -2 -14 -21 -7 -19 7 -41 1 -50 -15 -15 -23 -25 -23 -58 -3 -35 21 -41 20 -41 -6 0 -54 -73 -112 -148 -118 -70 -5 -80 4 -74 69 3 25 1 26 -15 2 -11 -16 -15 -50 -10 -78 7 -38 2 -46 -22 -37 -17 6 -30 5 -28 -3 6 -43 -6 -65 -28 -51 -19 11 -20 8 -2 -14 12 -16 19 -56 15 -89 -11 -91 3 -116 52 -90 32 17 40 15 40 -9 0 -17 -9 -31 -20 -31 -11 0 -20 -18 -20 -40 0 -22 -9 -40 -20 -40 -11 0 -20 19 -20 41 0 27 -8 36 -23 27 -16 -10 -20 -4 -11 18 7 18 4 38 -6 44 -9 6 -12 44 -5 85 10 68 8 72 -21 48 -35 -29 -81 -13 -68 24 4 13 -7 35 -24 50 -29 23 -28 25 6 14 31 -10 34 -7 13 18 -13 16 -19 41 -11 55 7 14 1 12 -14 -6 -14 -17 -37 -28 -51 -23 -35 12 -31 -6 9 -46 19 -19 37 -45 39 -57 3 -12 10 -44 17 -72 11 -48 10 -48 -9 -5 -12 28 -30 40 -50 32 -22 -8 -28 -2 -21 17 6 15 -12 48 -41 73 l-53 46 14 -44 c9 -28 7 -39 -6 -31 -12 7 -18 -3 -14 -23 4 -19 8 -44 10 -55 1 -11 11 -2 20 20 19 43 30 7 22 -70 -3 -19 2 -22 12 -9 39 53 78 45 83 -17 2 -35 11 -67 19 -73 8 -6 25 -30 38 -54 29 -52 -20 -84 -67 -45 -23 19 -25 17 -14 -12 10 -28 7 -33 -15 -22 -15 9 -5 -3 22 -25 31 -25 67 -37 93 -30 23 5 48 1 55 -11 8 -11 26 -15 43 -9 16 6 24 19 18 29 -6 10 -6 18 0 18 6 0 30 -29 52 -65 34 -55 39 -58 33 -18 -4 25 -20 54 -35 64 -15 9 -21 24 -12 32 8 9 23 3 33 -12 14 -23 23 -24 48 -3 16 14 40 20 51 13 12 -8 21 -4 21 8 0 11 -9 21 -20 21 -11 0 -20 9 -20 21 0 11 16 18 35 15 21 -4 33 5 29 22 -4 19 8 24 40 16 44 -12 45 -11 7 17 -21 16 -68 29 -103 29 -55 0 -63 6 -54 41 6 22 3 39 -6 37 -42 -7 -69 4 -57 23 7 11 2 33 -11 49 -16 19 -17 39 -3 63 16 30 22 23 34 -43 14 -74 16 -76 33 -29 17 44 20 46 39 14 10 -20 28 -31 38 -24 11 6 20 2 22 -10 4 -40 8 -51 23 -76 9 -14 26 -25 37 -25 12 0 7 22 -11 50 -18 28 -27 50 -20 50 7 0 1 14 -13 31 -22 27 -17 30 44 23 64 -7 68 -4 67 48 -1 61 -30 107 -30 49 0 -30 -5 -32 -32 -10 -25 22 -34 22 -47 0 -9 -14 -27 -20 -39 -12 -33 20 -27 52 8 38 17 -6 30 -2 30 8 0 25 97 26 112 2 6 -10 20 -12 32 -4 14 8 18 -9 12 -49 -6 -43 0 -64 19 -68 23 -5 21 -15 -8 -48 -20 -23 -50 -38 -67 -33 -24 8 -24 4 3 -18 17 -15 37 -62 44 -104 l11 -77 -67 13 c-76 14 -104 -10 -73 -64 19 -31 21 -30 21 10 1 25 9 45 19 45 10 0 16 -22 13 -49 -3 -28 2 -45 12 -39 28 17 19 -25 -11 -50 -21 -18 -35 -16 -58 7 -23 23 -34 25 -42 6 -10 -20 -14 -20 -24 0 -16 34 -48 32 -48 -4 0 -54 538 -77 621 -26 33 20 43 20 57 -3 11 -16 13 12 7 70 -13 122 -25 139 -25 36 -1 -58 -6 -70 -20 -48 -17 26 -19 26 -20 -3 0 -24 -12 -30 -41 -22 -27 6 -37 21 -30 40 10 25 6 26 -18 6 -16 -13 -47 -18 -70 -11 -33 10 -38 6 -28 -24 10 -28 8 -31 -13 -12 -20 18 -32 17 -54 -5 -32 -32 -117 -3 -95 32 6 10 1 19 -12 19 -14 0 -19 -17 -13 -40 6 -22 2 -40 -8 -40 -26 0 -15 139 11 142 41 5 81 -6 94 -26 8 -13 17 -12 26 2 8 13 21 18 31 12 9 -5 12 8 6 30 -6 22 -18 40 -28 40 -9 0 -12 -13 -5 -30 6 -16 5 -30 -2 -30 -29 0 -91 42 -91 62 0 11 8 15 18 9 41 -25 41 80 0 114 -34 28 -36 35 -10 35 18 0 32 11 32 25 1 17 7 15 20 -5 17 -27 19 -27 19 0 0 34 -48 104 -62 91 -4 -5 -8 7 -8 26 0 26 12 34 43 28 31 -6 40 -19 33 -47 -8 -33 0 -37 75 -30 62 6 79 3 62 -14 -25 -25 -30 -61 -6 -47 9 6 29 2 45 -8 23 -14 19 -18 -16 -19 -25 0 -45 -11 -45 -25 -1 -18 -5 -18 -18 2 -14 23 -19 23 -27 0 -5 -15 -17 -20 -25 -12 -9 8 -4 28 10 45 22 26 20 29 -7 18 -18 -7 -33 -25 -33 -40 0 -17 -13 -22 -35 -15 -26 10 -23 1 12 -35 33 -33 51 -40 57 -23 18 48 40 24 42 -46 4 -105 122 -159 140 -64 4 19 -3 35 -15 35 -11 0 -21 -10 -21 -23 0 -13 -5 -18 -12 -12 -7 7 2 33 20 58 28 41 28 48 -2 81 -19 22 -23 36 -9 36 13 0 24 25 24 55 2 47 4 49 17 16 9 -22 13 -60 11 -85 -3 -25 3 -46 13 -46 10 0 18 18 18 40 0 22 8 40 18 40 10 0 23 13 29 29 7 20 -1 26 -29 21 -23 -5 -37 2 -34 16 11 48 -58 47 -70 -1 -6 -21 -10 -13 -12 21 -1 33 6 51 18 44 35 -22 22 21 -21 66 -46 49 -78 61 -39 14 21 -25 17 -30 -28 -30 -35 0 -52 -11 -52 -33 0 -43 -19 -25 -29 28 -6 33 0 38 36 29 39 -10 40 -7 15 23 -16 19 -40 31 -53 25 -27 -10 -28 22 -2 64 13 20 25 17 52 -15 43 -50 63 -34 48 39 -9 43 -2 57 31 65 25 7 42 2 42 -12 0 -14 7 -13 18 4 14 23 19 23 26 0 7 -21 17 -19 44 8 31 31 32 35 2 35 -18 0 -27 9 -20 20 18 28 -11 25 -78 -11 -45 -23 -64 -25 -80 -7 -16 18 -13 21 13 12 23 -9 35 -3 35 17 0 16 -18 29 -41 29 -23 0 -47 18 -56 43 -15 40 -17 39 -42 -20 -20 -48 -38 -63 -78 -63 -67 1 -117 29 -85 49 13 8 17 22 11 33 -6 10 -19 14 -28 8 -9 -5 -22 4 -28 20 -12 30 4 37 77 32 38 -3 38 -2 5 25 -53 41 3 82 90 65 98 -19 94 -19 255 -6 l150 11 -90 -29 c-133 -43 -176 -48 -189 -21 -6 12 -5 2 1 -25 8 -31 5 -43 -10 -33 -13 8 -17 1 -10 -18 16 -40 60 -40 75 -1 7 17 23 30 37 30 21 -1 21 -4 1 -17 -20 -12 -16 -25 15 -53 22 -20 40 -26 40 -13 0 13 16 23 35 24 33 0 33 1 0 21 -19 11 -35 29 -35 39 0 31 60 22 73 -12 10 -26 15 -25 39 5 18 24 27 27 27 10 1 -18 15 -22 41 -14 29 9 40 4 40 -20 0 -18 10 -26 21 -19 12 7 27 -6 33 -30 12 -47 203 -46 393 2 42 11 90 15 106 9 16 -7 24 -4 18 6 -6 10 23 24 64 32 83 15 130 45 114 72 -6 10 12 16 40 14 28 -3 51 -12 51 -20 0 -8 36 -12 80 -8 79 8 80 8 80 -61 0 -62 -4 -66 -40 -47 -22 12 -40 30 -40 41 0 13 -17 11 -44 -3 -33 -18 -46 -18 -52 -1 -9 29 -84 30 -84 2 0 -12 -9 -16 -20 -9 -11 7 -20 2 -20 -11 0 -15 34 -19 112 -11 100 10 113 7 122 -28 6 -22 21 -41 33 -42 13 -2 32 -5 43 -7 11 -3 31 -6 45 -8 36 -4 31 -43 -6 -43 -22 0 -28 -12 -20 -38 9 -26 1 -40 -27 -47 -25 -7 -36 -2 -30 13 11 29 -109 142 -129 121 -7 -8 -2 -18 12 -23 14 -5 25 -22 25 -38 0 -15 9 -28 20 -28 11 0 20 -12 20 -28 0 -34 -64 -53 -103 -31 -16 9 -41 9 -55 0 -17 -10 7 -21 66 -30 104 -15 189 -76 121 -87 -84 -14 -101 -24 -68 -45 25 -16 25 -18 -1 -19 -26 -1 -26 -3 -1 -19 19 -12 39 -11 56 3 14 12 32 15 40 7 8 -7 -8 -31 -35 -52 -28 -21 -39 -38 -25 -39 14 0 25 -17 25 -37 0 -20 18 -53 40 -73 21 -19 33 -45 26 -56 -8 -13 -2 -14 16 -3 15 9 6 -7 -22 -36 -39 -42 -53 -47 -65 -25 -21 37 -81 14 -66 -25 8 -20 2 -26 -18 -18 -16 6 -35 2 -42 -8 -7 -11 -5 -19 5 -17 38 7 44 -5 26 -53 -19 -50 -18 -51 54 -45 61 5 77 15 86 56 8 33 28 52 59 57 35 5 44 -1 35 -23 -18 -47 58 -106 95 -74 17 13 25 34 18 45 -8 12 -3 15 10 7 13 -8 23 -2 23 16 0 16 16 41 35 56 36 27 57 78 30 74 -42 -7 -63 5 -53 30 6 15 1 34 -11 41 -11 7 -21 -1 -21 -18 0 -17 -9 -31 -20 -31 -10 0 -25 -22 -32 -50 -7 -27 -22 -50 -34 -50 -11 0 -15 6 -8 13 7 7 -14 43 -46 81 -33 37 -60 78 -60 92 0 15 8 13 20 -6 25 -37 66 12 49 58 -8 22 -4 23 20 3 17 -15 54 -21 86 -14 30 6 44 7 30 1 -14 -6 -25 -21 -25 -33 0 -12 16 -6 37 12 48 43 62 25 49 -59 -10 -58 -6 -67 21 -56 18 7 27 22 20 33 -9 14 4 17 35 8 26 -7 55 -13 63 -13 8 0 15 -9 15 -19 0 -11 -16 -15 -35 -8 -30 9 -30 7 -5 -11 22 -16 35 -14 51 7 18 23 25 22 46 -11 13 -22 34 -34 46 -26 12 7 29 1 38 -14 12 -19 16 -12 15 22 -2 28 -11 61 -22 75 -10 13 -14 37 -7 53 11 30 -81 105 -102 84 -6 -7 -1 -12 13 -12 13 0 19 -8 13 -19 -7 -10 0 -26 14 -35 35 -22 80 -106 56 -106 -10 0 -24 9 -31 20 -7 11 -30 20 -53 20 -31 0 -37 9 -27 40 8 24 4 40 -11 40 -13 0 -18 14 -11 31 6 17 4 26 -5 21 -30 -19 -69 91 -41 116 17 16 21 14 14 -8 -5 -16 4 -40 21 -52 34 -25 103 -14 103 17 0 11 -22 14 -49 7 -53 -13 -54 22 -1 88 13 17 31 48 40 70 16 39 17 38 25 -5 8 -49 37 -60 50 -20 7 19 18 18 47 -5 35 -28 36 -28 9 7 -28 36 -46 118 -22 103 7 -4 26 1 42 11 20 13 21 18 4 19 -14 0 -25 10 -25 22 0 12 14 17 30 11 18 -7 30 0 30 18 0 16 9 29 20 29 12 0 15 -21 8 -50 -7 -28 -4 -50 6 -50 11 0 20 11 20 25 1 14 4 39 8 55 6 22 -11 31 -63 33 -69 3 -126 -62 -128 -143 -1 -11 -21 -21 -46 -22 -80 -5 -84 -7 -71 -43 11 -29 8 -31 -17 -10 -23 18 -35 19 -53 1 -17 -17 -24 -18 -24 -1 0 12 17 28 39 35 21 6 37 28 36 47 -3 39 -79 37 -135 -4 -16 -12 -12 -2 9 24 29 34 32 44 10 39 -17 -3 -28 8 -26 29 1 19 -7 35 -18 35 -12 0 -6 17 12 37 32 35 32 39 -1 64 -20 15 -29 20 -21 10 8 -9 -1 -28 -20 -42 -27 -20 -29 -30 -8 -55 14 -18 19 -51 12 -81 -9 -36 -1 -67 29 -105 23 -29 42 -63 42 -75 0 -11 -13 -3 -28 18 -16 21 -35 32 -44 24 -8 -8 -30 -1 -49 16 -39 35 -68 -3 -46 -61 13 -34 47 -41 47 -10 0 11 -10 20 -21 20 -12 0 -16 9 -9 20 26 42 92 -27 79 -85 -16 -73 7 -108 41 -61 16 22 20 44 9 58 -12 14 -8 21 11 21 17 0 26 -3 22 -8 -5 -4 -1 -34 8 -67 11 -38 10 -58 -4 -58 -14 0 -14 -9 1 -27 13 -15 16 -34 8 -43 -8 -9 0 -11 18 -4 20 7 38 0 45 -17 17 -46 -37 -33 -83 19 -23 27 -38 52 -33 57 4 4 -12 7 -36 7 -30 -1 -54 17 -72 54 -24 50 -35 55 -101 45 -49 -8 -64 -5 -44 8 16 10 35 15 43 10 8 -5 19 4 25 20 7 18 -5 34 -28 41 -22 7 -34 21 -28 31 6 11 2 19 -10 19 -11 0 -21 10 -21 21 0 12 10 15 21 8 34 -21 101 52 88 95 -8 24 -3 35 14 32 37 -8 56 -62 29 -83 -14 -10 -12 -13 8 -8 48 13 48 89 1 115 -35 18 -40 34 -29 91 10 56 6 69 -21 69 -19 0 -28 9 -20 21 7 12 -6 27 -29 33 -23 6 -42 19 -42 28 0 23 14 23 60 -2 23 -13 54 -13 84 -1 51 20 46 24 -49 30 -65 5 -540 -20 -720 -38 l-95 -9 0 78 c0 43 9 83 20 90 47 29 20 75 -39 66 -48 -7 -61 -1 -67 33 -8 38 -9 38 -11 -4 -3 -44 -163 -73 -163 -30 0 19 -281 0 -313 -20 -15 -10 -28 -2 -33 20 -8 28 -10 27 -12 -7 -2 -48 -317 -86 -345 -42 -15 23 -280 2 -296 -24 -19 -28 -203 -40 -213 -14 -6 15 -37 20 -84 14 -68 -8 -70 -10 -24 -23 38 -11 24 -16 -54 -17 -132 -3 -210 25 -193 69 10 27 40 31 175 26 150 -6 162 -3 162 33 0 37 16 40 200 46 l200 5 -7 110 c-4 70 1 109 15 109 13 0 22 -41 22 -100 0 -55 7 -100 16 -100 9 0 12 32 8 70 -7 56 -2 70 26 70 28 0 33 -14 26 -71 -8 -66 -5 -70 43 -60 28 5 130 12 227 15 175 6 176 6 167 55 -10 55 3 101 29 101 10 0 18 -33 18 -73 l0 -73 153 13 c84 7 175 13 201 13 27 0 43 8 38 18 -13 21 83 42 191 42 l77 0 0 90 c0 120 39 116 43 -5 3 -73 5 -80 11 -30 5 36 18 65 30 65 11 0 16 -22 11 -49 -5 -30 1 -53 18 -59 19 -8 27 7 27 49 0 74 35 78 46 4 l8 -55 3 55 c2 35 14 55 34 55 21 0 29 -15 25 -45 -7 -49 277 -59 307 -11 6 11 15 12 20 3 4 -10 54 -15 112 -11 l105 8 0 88 c0 119 52 123 57 5 4 -104 -13 -96 163 -78 83 8 218 7 300 -1 95 -9 234 -5 380 13 127 15 309 33 405 40 l175 13 0 108 c0 83 7 108 30 108 39 0 43 -191 5 -207 -44 -17 80 -14 278 8 188 21 244 15 186 -22 -16 -10 -20 -19 -9 -19 11 0 22 -27 24 -59 5 -67 -159 -118 -194 -61 -12 19 -55 22 -163 13 -81 -6 -163 -12 -183 -12 -20 -1 -31 -9 -25 -20 11 -17 -72 -30 -305 -47 -58 -5 -110 -1 -116 9 -6 9 -71 18 -144 19 -98 1 -120 6 -84 18 28 9 37 17 20 19 -16 2 -129 14 -250 27 -121 13 -269 19 -330 12 l-110 -11 100 -4 c65 -2 90 -10 73 -21 -15 -9 -19 -20 -8 -25 13 -4 13 -24 -1 -57 -20 -49 -21 -49 -29 -6 -7 39 -13 41 -67 22 -33 -11 -87 -15 -119 -9 -55 11 -59 8 -59 -50 0 -46 -7 -58 -29 -50 -17 6 -35 3 -42 -8 -15 -24 37 -23 149 2 134 31 202 10 202 -64 0 -33 8 -54 18 -48 10 6 23 0 29 -14 5 -14 11 50 11 142 l2 166 55 -11 c30 -7 107 -13 170 -15 l115 -3 0 -87 c0 -48 9 -87 20 -87 11 0 20 -19 20 -42 0 -32 -8 -39 -35 -29 -70 27 -149 36 -162 18 -42 -59 -141 -94 -283 -100 -279 -13 -340 -42 -236 -116 39 -27 49 -27 89 -1 48 31 75 14 56 -36 -7 -17 -2 -36 9 -43 13 -8 17 -1 10 16 -16 42 20 56 62 25 50 -36 179 -3 206 55 14 28 22 33 23 13 1 -27 4 -27 21 0 17 27 19 27 20 0 0 -24 4 -25 18 -3 13 21 19 20 29 -6 7 -19 4 -28 -7 -21 -11 7 -20 1 -20 -14 -1 -19 -6 -18 -20 4 -17 26 -19 25 -20 -5 0 -19 9 -35 20 -35 11 0 20 -20 20 -45 1 -73 33 -108 44 -48 6 29 0 56 -12 62 -12 5 7 6 42 2 35 -4 72 -13 83 -19 11 -7 27 -1 35 13 8 14 7 19 -1 11 -23 -21 -76 39 -61 69 7 14 0 9 -16 -11 -26 -31 -31 -32 -41 -4 -7 19 -4 27 7 20 26 -16 25 3 0 51 -17 31 -15 36 9 26 17 -6 26 -18 21 -27 -5 -9 4 -21 21 -28 18 -6 26 -21 19 -32 -7 -11 -5 -21 4 -21 9 -1 37 -6 62 -11 l47 -8 -46 65 c-25 36 -51 70 -57 75 -14 11 -42 80 -33 80 2 0 40 -47 83 -105 95 -128 129 -163 175 -180 37 -15 48 -55 15 -55 -11 0 -20 11 -20 24 0 13 -13 6 -29 -15 -23 -31 -24 -43 -5 -59 27 -21 34 -130 9 -130 -8 0 -15 -9 -15 -20 0 -35 31 -22 95 41 l62 61 34 -71 c29 -62 40 -69 86 -57 75 18 116 62 74 78 -17 7 -31 29 -31 50 0 21 -10 38 -21 38 -12 0 -20 -20 -18 -45 2 -25 2 -56 1 -69 -3 -35 -59 -9 -85 39 -18 34 -16 39 11 29 20 -8 32 -2 32 17 0 31 -24 38 -47 15 -50 -49 -137 11 -93 64 20 24 17 43 -16 98 -46 77 -40 93 34 90 29 0 42 -5 29 -11 -26 -10 7 -125 43 -152 13 -10 10 -21 -7 -32 -19 -13 -21 -22 -5 -32 12 -7 22 -3 22 10 0 18 7 18 27 1 47 -38 89 -5 89 69 0 38 -7 69 -15 69 -8 0 -25 22 -37 50 -22 47 -20 50 36 50 68 0 81 30 20 46 -22 6 -35 2 -29 -8 6 -10 -8 -18 -31 -18 -27 0 -37 8 -28 23 10 16 1 20 -29 12 -24 -6 -39 -4 -34 4 5 8 -37 26 -95 40 l-105 25 8 75 c10 113 163 119 163 7 0 -55 -7 -67 -35 -62 -20 4 -33 22 -29 42 3 19 -4 34 -15 34 -12 0 -21 -21 -21 -47 0 -46 142 -97 176 -64 6 6 0 11 -13 11 -17 0 -18 10 -3 35 11 19 29 60 39 90 42 116 95 24 82 -140 -2 -26 7 -45 23 -45 20 0 28 36 29 131 3 142 10 162 51 137 14 -9 38 -19 53 -21 47 -7 51 -27 5 -27 -25 0 -39 -9 -32 -20 7 -12 20 -16 28 -11 8 5 17 -2 18 -15 25 -203 26 -197 -40 -190 -34 3 -66 -4 -70 -16 -7 -22 123 -22 318 -1 81 9 175 -61 145 -109 -10 -15 -7 -19 7 -10 13 7 47 -15 78 -52 31 -36 97 -106 146 -155 l90 -91 -85 -6 c-47 -4 -85 -15 -85 -26 0 -11 -9 -15 -20 -8 -11 7 -20 3 -20 -9 0 -19 27 -29 64 -24 7 1 19 -16 26 -37 9 -28 30 -40 71 -40 60 0 78 26 36 52 -16 10 -18 5 -6 -14 13 -22 11 -23 -12 -5 -16 13 -38 25 -49 27 -11 2 -24 9 -30 15 -5 6 1 5 14 -2 13 -8 28 -5 35 5 19 31 91 0 91 -40 0 -29 15 -38 60 -38 33 0 60 -10 60 -21 0 -12 -8 -16 -18 -10 -10 6 -23 -3 -30 -20 -6 -18 -3 -26 8 -19 11 7 20 3 20 -8 0 -11 -10 -26 -22 -33 -16 -10 -14 -19 5 -31 21 -13 19 -23 -13 -47 -22 -18 -31 -29 -20 -26 11 3 21 -3 23 -13 2 -10 11 -23 21 -30 30 -21 65 -120 47 -131 -9 -6 -13 -28 -7 -49 6 -26 -2 -41 -27 -48 -20 -5 3 -10 51 -12 84 -2 87 0 55 35 -44 48 -42 62 7 49 22 -6 40 -27 40 -48 0 -50 188 -57 207 -8 7 16 3 30 -7 30 -10 0 -13 14 -6 32 6 18 -1 40 -16 50 -22 14 -21 17 7 18 19 0 35 -7 35 -16 0 -8 23 -17 52 -20 34 -2 48 5 42 21 -4 14 -28 23 -52 20 -29 -3 -39 3 -30 18 9 15 5 18 -11 8 -19 -12 -22 -4 -13 31 6 27 7 37 0 24 -8 -19 -21 -18 -55 4 -50 33 -105 10 -87 -37 6 -17 1 -35 -12 -41 -16 -6 -13 -17 11 -32 46 -29 44 -53 -5 -66 -22 -6 -35 -3 -30 7 6 9 -14 19 -45 23 -33 3 -53 17 -50 32 4 17 -3 21 -18 12 -16 -9 -20 -4 -12 15 6 16 -6 51 -27 78 -50 65 -47 79 13 79 29 0 46 9 39 20 -7 11 2 35 21 53 28 28 35 29 51 5 23 -37 23 -58 -2 -58 -36 0 -21 -35 20 -46 22 -6 40 -2 40 9 0 11 8 14 18 8 11 -6 31 0 45 14 34 33 137 33 137 0 0 -14 8 -25 18 -25 10 0 24 -23 31 -52 10 -42 18 -47 41 -28 16 13 39 17 52 9 17 -11 14 -23 -13 -42 -20 -15 -30 -33 -23 -40 19 -18 -26 -69 -48 -56 -10 6 -18 2 -18 -10 0 -13 20 -17 50 -9 31 8 50 4 50 -10 0 -12 -9 -22 -20 -22 -11 0 -20 -8 -20 -18 0 -9 83 -18 185 -20 128 -2 176 4 155 17 -16 11 -46 15 -66 9 -32 -10 -34 -7 -10 30 37 60 111 40 141 -38 8 -20 12 -14 13 16 1 26 -7 64 -19 85 -11 22 -13 39 -4 39 9 0 18 19 20 43 5 64 32 82 88 57 55 -25 168 6 147 40 -17 28 37 25 66 -4 19 -19 24 -18 24 2 0 21 6 22 28 4 15 -13 23 -41 18 -63 -8 -29 -1 -39 30 -39 45 0 46 25 4 100 -16 28 -27 57 -24 65 8 29 -42 14 -68 -20 -25 -32 -27 -32 -27 10 -1 25 9 45 20 45 12 0 16 9 9 20 -14 23 -68 -19 -63 -49 2 -10 -15 -22 -37 -27 -21 -5 -49 -22 -61 -39 -20 -27 -24 -25 -34 12 -7 26 -27 43 -52 43 -22 0 -46 9 -53 20 -7 11 1 20 18 20 21 0 27 11 18 35 -12 31 -9 32 20 8 24 -20 34 -21 34 -4 0 13 23 22 55 19 88 -7 128 1 116 21 -6 10 -1 25 12 33 28 17 82 -51 68 -86 -13 -35 5 -32 45 7 20 20 35 24 39 11 8 -24 105 10 105 37 0 22 78 38 91 18 5 -9 26 -12 45 -5 27 9 26 5 -6 -23 -28 -24 -33 -37 -15 -44 14 -6 25 -22 25 -37 0 -15 11 -32 25 -39 14 -6 5 -8 -20 -3 -25 4 -50 0 -57 -11 -19 -31 30 -74 72 -63 24 7 44 -1 51 -20 10 -26 18 -26 71 0 32 16 53 38 46 48 -6 11 -2 31 10 45 16 20 8 24 -37 17 -63 -9 -129 41 -133 101 -6 71 -9 77 -33 62 -16 -10 -15 -3 3 20 49 60 -7 189 -86 197 l-62 6 -2 325 c-1 179 -8 332 -15 339 -7 7 -13 -145 -13 -337 0 -390 1 -386 -91 -348 -36 15 -71 22 -77 16 -7 -6 -12 -1 -12 12 0 13 -7 22 -15 21 -105 -17 -105 -17 -105 279 0 229 5 276 29 276 16 0 25 -7 19 -16 -6 -10 4 -23 22 -30 20 -8 29 -27 23 -50 -5 -20 -1 -32 9 -26 10 6 18 24 18 40 0 16 12 23 30 16 37 -14 42 -147 5 -147 -17 -1 -15 -7 5 -22 23 -16 24 -24 5 -31 -32 -13 -32 -112 0 -144 20 -20 19 -28 -1 -40 -20 -13 -19 -28 5 -75 l31 -58 0 55 c0 77 36 69 46 -10 5 -36 9 81 9 260 l1 325 -56 0 c-31 0 -60 -8 -63 -18 -14 -36 -137 1 -137 41 0 22 -9 34 -21 26 -24 -14 -23 -417 1 -614 16 -132 4 -192 -23 -118 -9 25 -33 43 -56 43 -40 0 -41 11 -41 363 0 200 -5 358 -12 352 -6 -6 -10 -166 -9 -355 2 -271 -3 -342 -23 -335 -20 6 -25 79 -21 307 2 164 -2 309 -11 322 -23 36 -289 66 -314 35 -38 -47 -150 -12 -150 47 0 56 -20 50 -28 -9 -3 -20 -12 -35 -19 -32 -7 3 -35 5 -62 5 -37 0 -50 12 -57 55 -4 30 -9 -66 -11 -215 -1 -148 6 -283 17 -300 13 -20 19 46 20 205 0 222 2 234 39 229 66 -10 71 -27 82 -281 l12 -243 3 245 c4 222 18 283 54 225 19 -31 90 -23 90 10 0 35 32 40 51 8 8 -12 2 -30 -13 -40 -20 -13 -21 -17 -3 -18 14 0 25 -13 25 -30 0 -16 -9 -30 -20 -30 -11 0 -20 -22 -20 -50 0 -27 9 -50 20 -50 11 0 20 -9 20 -20 0 -11 -12 -20 -27 -20 -17 0 -25 -24 -25 -70 2 -68 17 -80 86 -72 14 2 23 -22 22 -58 -1 -33 4 -66 11 -74 7 -7 13 2 13 21 0 18 9 33 20 33 11 0 20 -23 20 -52 0 -35 -9 -49 -26 -42 -14 5 -136 35 -270 66 l-244 55 0 255 c0 300 -5 318 -83 318 -33 0 -54 -8 -48 -18 6 -10 0 -23 -14 -29 -15 -6 -12 -10 9 -11 18 -1 40 -13 48 -25 10 -16 4 -20 -19 -11 -18 7 -33 5 -33 -4 0 -10 12 -23 28 -28 34 -14 30 -146 -4 -139 -13 3 -24 -4 -24 -15 0 -11 14 -20 30 -20 17 0 30 -9 30 -20 0 -11 -14 -20 -32 -20 -52 0 -19 -50 39 -56 78 -10 68 -64 -12 -65 -53 -2 -58 -5 -25 -18 22 -8 51 -11 65 -6 15 5 25 -7 25 -31 0 -28 -11 -38 -35 -33 -19 4 -82 17 -139 30 l-105 23 -6 283 -6 283 -5 -285 c-4 -257 -7 -285 -39 -283 -21 1 -25 5 -10 11 19 8 25 131 25 519 0 325 7 508 20 508 11 0 20 -8 20 -19 0 -10 20 -25 45 -33 44 -13 44 -14 5 -30 -26 -10 -30 -16 -10 -17 17 -1 161 -19 320 -40 160 -21 364 -44 455 -52 91 -8 165 -22 165 -31 0 -9 13 -12 28 -6 15 6 99 0 185 -12 86 -13 189 -26 227 -29 39 -3 108 -12 155 -20 81 -14 85 -12 85 35 0 45 10 50 125 65 l125 16 -150 17 c-82 10 -514 63 -960 118 -581 72 -838 96 -910 86 -130 -18 -185 -23 -394 -36 -95 -5 -208 -14 -250 -20 -42 -6 -143 -15 -226 -22 -82 -6 -744 -61 -1470 -122 -726 -60 -1563 -130 -1860 -155 -297 -25 -543 -37 -547 -28 -14 34 19 42 149 39 116 -4 128 -1 101 26 -34 34 -62 40 -43 10 7 -11 -2 -20 -20 -20 -18 0 -28 7 -22 17 6 9 -41 12 -104 7 -102 -7 -111 -5 -84 22 29 30 544 106 577 86 8 -5 94 8 190 30 97 21 184 34 194 27 11 -6 19 -2 19 10 0 11 18 21 40 21 22 0 40 -10 40 -22 0 -16 9 -15 30 2 17 14 30 16 30 6 0 -32 199 -19 221 14 16 25 22 25 37 3 11 -18 21 -20 30 -6 7 11 42 17 77 13 46 -6 77 4 110 34 42 40 45 40 45 6 0 -35 3 -35 45 4 25 22 55 37 68 32 13 -4 29 1 35 11 21 33 96 2 82 -34 -8 -22 3 -18 35 12 53 50 93 61 56 16 -20 -24 -16 -28 22 -26 57 2 121 53 103 81 -7 11 -2 14 10 7 11 -8 27 -4 35 9 10 16 19 15 31 -5 12 -20 30 -13 77 32 34 32 61 53 61 46 0 -8 -20 -33 -45 -57 -54 -53 -5 -29 63 30 41 35 46 36 36 7 -7 -19 -3 -35 8 -35 11 0 14 -10 7 -22 -8 -12 8 -8 35 10 27 18 55 26 62 19 8 -7 31 2 52 21 31 28 47 31 80 13 23 -12 43 -18 45 -12 1 6 3 19 5 29 1 10 10 26 20 35 11 10 13 7 5 -7 -10 -17 3 -22 46 -17 34 5 61 1 61 -7 0 -20 75 -14 95 7 8 10 2 10 -15 1 -16 -9 -23 -9 -15 0 8 9 48 19 90 22 109 9 125 13 125 33 0 9 9 12 20 5 11 -7 20 -4 20 5 0 10 14 18 30 18 17 0 30 -6 30 -14 0 -27 -50 -54 -94 -50 -24 2 -42 -6 -40 -17 2 -12 -8 -20 -22 -17 -15 4 -21 -3 -14 -14 7 -13 30 -9 61 12 27 17 49 26 49 18 0 -7 20 1 44 18 54 37 84 40 64 6 -8 -15 -7 -18 4 -8 10 9 18 26 18 38 0 11 21 24 48 28 42 7 44 4 20 -26 -25 -30 -24 -31 12 -13 22 11 74 19 117 17 42 -1 81 6 88 16 6 11 0 12 -15 3 -17 -11 -21 -8 -12 7 8 13 24 18 35 11 30 -19 117 -24 106 -7 -16 27 33 45 57 21 12 -12 31 -22 43 -22 12 0 8 9 -9 20 -20 13 -22 19 -5 20 14 0 25 15 25 32 0 35 126 24 173 -15 16 -13 30 -8 43 15 20 35 52 44 189 50 42 1 80 11 86 20 14 21 27 22 -221 -3 -110 -10 -393 -37 -630 -59 -934 -87 -1054 -100 -1165 -122 -63 -13 -109 -31 -103 -41 6 -9 1 -17 -11 -17 -11 0 -21 -10 -21 -22 0 -13 15 -17 35 -9 25 10 29 7 13 -8 -59 -60 -85 -2 -77 173 9 201 29 248 29 71 0 -68 9 -128 20 -135 12 -8 20 30 20 100 0 151 23 189 116 192 105 4 -5 21 -644 100 l-518 64 -392 -43 c-458 -51 -756 -71 -632 -44 44 9 185 29 314 43 129 14 231 30 227 37 -4 6 38 8 93 4 63 -5 96 0 89 13 -7 11 3 32 22 47 32 24 32 24 8 -8 -26 -32 -21 -35 51 -35 64 0 84 10 106 49 14 27 34 45 44 39 10 -7 8 -24 -5 -40 -20 -23 -14 -28 31 -28 45 0 53 7 44 40 -6 22 -2 35 8 29 10 -6 18 -22 18 -35 0 -16 187 -49 576 -101 318 -43 603 -81 635 -86 98 -15 13 25 -111 53 -60 13 -326 76 -590 140 -264 64 -511 121 -550 126 -47 7 -265 -38 -668 -137z m646 -117 c-4 -4 -143 -23 -308 -41 -165 -18 -316 -38 -335 -43 -19 -6 -35 -2 -35 8 0 10 106 32 235 48 230 29 460 44 443 28z m124 -52 c10 0 18 -43 18 -96 l0 -96 70 8 70 8 0 -91 c0 -91 0 -92 -53 -72 -62 24 -94 2 -84 -54 8 -38 169 -77 188 -45 5 8 4 105 -1 214 l-11 200 50 -3 c49 -3 51 -8 54 -143 2 -77 7 -107 11 -67 7 62 17 74 70 85 134 27 133 29 140 -166 l6 -179 -120 -24 c-66 -14 -200 -46 -299 -71 -98 -26 -180 -45 -183 -43 -11 13 -24 633 -13 644 7 7 25 7 41 2 15 -6 36 -11 46 -11z m488 1 l80 -16 -70 0 c-88 0 -219 30 -140 31 28 1 86 -6 130 -15z m-912 -126 l-2 -105 -20 75 c-11 42 -15 89 -9 105 22 57 33 30 31 -75z m-82 -12 c-9 -3 -16 -78 -16 -165 l0 -158 -59 0 c-45 0 -60 11 -67 45 -6 31 -7 27 -5 -10 2 -31 -6 -55 -19 -55 -16 0 -25 49 -26 148 -1 81 -5 159 -8 175 -5 20 16 25 89 20 92 -6 95 -5 97 50 2 57 2 57 16 7 8 -27 7 -53 -2 -57z m1150 -90 c-8 -99 -4 -152 11 -161 17 -10 23 33 23 152 0 96 8 155 17 140 11 -17 35 -22 70 -13 53 13 53 13 53 -104 0 -64 6 -139 13 -165 12 -43 8 -47 -40 -38 -29 6 -53 4 -53 -5 0 -11 -104 -59 -128 -59 -2 0 4 408 6 416 17 58 36 -53 28 -163z m-1515 -13 c4 -71 1 -161 -6 -200 l-13 -70 -14 60 -13 60 -3 -55 c-1 -30 -10 -55 -21 -55 -10 0 -22 25 -27 55 -7 49 -8 48 -11 -12 l-3 -68 105 13 c109 13 352 35 430 40 39 2 41 5 15 24 -33 24 -41 88 -11 88 10 0 21 20 25 43 9 62 61 75 56 14 -12 -137 -4 -157 65 -154 47 2 53 5 20 11 -41 8 -45 20 -45 144 l0 135 62 -9 62 -9 -8 -136 c-4 -75 -2 -133 4 -129 27 17 71 -30 44 -47 -45 -29 -928 -107 -952 -83 -14 14 -2 27 40 43 l61 23 -9 214 -9 215 75 -13 75 -12 6 -130z m109 -190 c0 -40 -10 -50 -50 -50 -85 0 -54 67 45 98 3 1 5 -20 5 -48z m4420 -229 c0 -26 -16 -44 -45 -49 -100 -21 -213 -33 -364 -39 -105 -5 -162 -16 -167 -32 -6 -16 -14 -18 -21 -5 -21 34 -283 5 -283 -31 0 -26 5 -26 34 -2 23 18 29 19 19 2 -9 -14 -8 -25 2 -25 9 0 29 11 44 25 22 20 24 20 12 -1 -15 -27 39 -23 117 8 27 10 34 8 24 -9 -8 -12 -27 -23 -43 -23 -16 0 -29 -19 -29 -42 0 -36 5 -39 30 -18 26 21 29 20 19 -4 -6 -17 -34 -41 -61 -53 -65 -30 -75 -29 -61 7 7 17 3 30 -8 30 -10 0 -19 -19 -19 -41 0 -25 -9 -36 -22 -28 -12 7 -17 31 -11 52 8 32 4 35 -18 16 -15 -12 -37 -17 -48 -9 -12 7 -27 -2 -33 -19 -7 -17 -20 -31 -30 -31 -9 0 -12 14 -5 30 6 17 1 30 -11 30 -12 0 -22 10 -22 21 0 12 8 16 18 10 10 -6 23 3 29 19 7 17 1 31 -13 32 -13 1 -1 10 26 19 30 10 -45 13 -190 8 -132 -5 -243 -19 -247 -29 -3 -11 -15 -15 -26 -8 -30 19 -418 -14 -406 -34 6 -10 33 -18 59 -18 26 0 53 -9 60 -20 7 -11 0 -20 -16 -20 -15 0 -44 -18 -64 -40 -52 -57 -67 -50 -74 35 -5 62 -13 74 -46 69 -22 -4 -58 -7 -80 -7 -57 0 -597 -35 -740 -49 -251 -23 -565 -49 -690 -57 -137 -9 -302 -22 -630 -52 -110 -10 -246 -18 -303 -18 -70 1 -113 -10 -136 -33 -24 -24 -82 -36 -210 -43 l-177 -10 3 52 c3 45 14 53 83 62 124 14 351 36 442 42 45 3 176 15 290 27 115 12 298 27 408 32 110 6 250 16 310 22 61 6 151 15 200 19 50 4 131 12 180 17 50 5 180 15 290 22 110 7 227 16 260 20 33 4 119 13 190 19 72 6 180 16 240 21 61 6 178 16 260 23 83 7 182 15 220 19 39 5 109 8 157 8 47 0 96 6 107 13 12 7 59 16 104 19 45 3 127 11 182 17 122 14 278 27 447 39 69 5 130 12 134 17 35 34 349 13 349 -24z m-80 -170 c0 -25 -13 -57 -30 -71 -22 -18 -30 -19 -30 -2 0 17 -11 18 -37 4 -33 -18 -36 -14 -27 31 5 29 26 57 47 62 20 5 37 18 37 29 0 10 9 13 20 6 11 -7 20 -33 20 -59z m-360 -12 c-20 -12 -22 -18 -5 -19 15 0 25 -27 25 -70 0 -49 -9 -70 -30 -70 -23 0 -30 24 -30 97 0 104 15 136 48 103 15 -15 13 -27 -8 -41z m180 -40 c0 -75 -7 -99 -30 -99 -27 0 -41 58 -32 133 2 14 -13 19 -38 13 -26 -7 -40 -1 -40 18 0 20 23 30 70 32 l70 3 0 -100z m-808 -24 c-4 -36 -9 -81 -10 -100 -3 -57 -42 -40 -44 20 l-3 55 -12 -58 c-19 -88 -63 -90 -63 -4 0 59 7 72 40 72 22 0 40 8 40 18 0 10 -18 14 -40 8 -22 -6 -40 -1 -40 10 0 19 40 33 115 41 16 2 22 -19 17 -62z m721 -20 c3 -29 -8 -56 -24 -63 -22 -8 -29 7 -29 60 0 83 47 86 53 3z m-879 -65 c-5 -93 -54 -93 -54 0 0 47 9 70 29 70 20 0 27 -21 25 -70z m-74 -10 c0 -36 -10 -60 -26 -60 -14 0 -28 27 -30 60 -3 42 4 60 26 60 20 0 30 -20 30 -60z m-760 -40 c0 -22 -13 -40 -30 -40 -17 0 -30 18 -30 40 0 22 13 40 30 40 17 0 30 -18 30 -40z m-1240 -80 c0 -60 -9 -100 -22 -100 -14 0 -19 27 -14 69 5 42 -2 73 -16 79 -17 7 -21 -13 -13 -69 8 -65 4 -79 -23 -79 -32 0 -44 135 -18 185 36 66 106 10 106 -85z m-140 -40 c0 -33 -9 -60 -20 -60 -11 0 -20 27 -20 60 0 33 9 60 20 60 11 0 20 -27 20 -60z m-940 21 c0 -10 -18 -24 -40 -31 -22 -7 -40 -22 -40 -33 0 -12 16 -16 35 -9 28 10 27 6 -5 -19 -36 -28 -41 -28 -47 3 -4 19 14 51 40 71 55 42 57 43 57 18z m200 -81 c0 -33 -9 -60 -20 -60 -11 0 -20 27 -20 60 0 33 9 60 20 60 11 0 20 -27 20 -60z m60 0 c0 -33 -9 -60 -20 -60 -11 0 -20 27 -20 60 0 33 9 60 20 60 11 0 20 -27 20 -60z m3700 -10 c0 -17 -18 -30 -40 -30 -40 0 -52 21 -27 47 25 24 67 13 67 -17z m180 8 c0 -13 -21 -19 -50 -13 -48 9 -50 5 -50 -88 0 -73 -7 -97 -30 -97 -38 0 -43 139 -5 142 20 1 20 3 0 11 -59 24 -24 67 55 67 46 0 80 -10 80 -22z m-280 -18 c0 -11 -11 -21 -25 -22 -20 -1 -20 -3 0 -11 45 -18 33 -227 -13 -227 -32 0 -52 222 -25 275 8 15 63 2 63 -15z m386 -53 c-7 -19 1 -40 21 -51 27 -14 29 -26 11 -60 -16 -29 -16 -53 -1 -83 12 -24 24 -56 27 -73 3 -16 15 -37 26 -46 20 -16 -109 -3 -177 18 -30 10 -33 6 -17 -25 29 -53 88 -101 129 -104 104 -8 103 -8 68 -34 -18 -13 -33 -31 -33 -40 0 -9 11 -6 24 7 48 48 186 -17 141 -66 -8 -9 -5 -11 8 -3 13 7 28 0 34 -16 8 -20 1 -25 -21 -17 -22 9 -28 5 -18 -11 18 -29 -8 -29 -48 -1 -23 16 -24 24 -5 31 14 6 25 19 25 30 0 11 -8 14 -18 8 -10 -6 -22 0 -27 13 -5 15 -13 11 -21 -10 -37 -97 77 -154 346 -175 138 -10 280 -24 317 -30 37 -6 78 -1 94 12 38 31 79 5 48 -32 -12 -15 -17 -37 -10 -48 8 -12 1 -16 -18 -9 -17 7 -27 19 -22 27 6 8 -58 16 -141 17 -83 0 -222 7 -309 14 -88 7 -159 7 -159 0 0 -38 98 -89 172 -89 187 -2 329 -26 307 -52 -15 -19 -73 -22 -220 -14 -148 8 -199 5 -199 -13 0 -14 -9 -19 -20 -12 -11 7 -20 32 -20 56 0 62 -41 118 -280 384 -234 260 -247 279 -170 250 76 -29 88 -25 75 23 -7 27 -4 39 10 30 11 -7 26 0 32 16 6 17 1 36 -11 44 -14 8 -5 20 24 31 l47 17 -43 31 c-49 33 -58 80 -19 94 37 13 55 -3 41 -39z m-106 -77 c0 -103 -3 -110 -48 -110 -27 0 -63 -5 -80 -12 -21 -8 -32 -1 -32 20 0 21 18 32 51 32 37 0 51 10 48 35 -9 90 3 145 31 145 23 0 30 -26 30 -110z m1200 10 c0 -55 -9 -100 -20 -100 -11 0 -20 45 -20 100 0 55 9 100 20 100 11 0 20 -45 20 -100z m-1380 10 c0 -57 -8 -70 -40 -70 -32 0 -40 13 -40 70 0 57 8 70 40 70 32 0 40 -13 40 -70z m760 0 c0 -38 -9 -70 -20 -70 -11 0 -20 32 -20 70 0 39 9 70 20 70 11 0 20 -31 20 -70z m500 -40 c0 -38 -9 -70 -20 -70 -11 0 -20 32 -20 70 0 39 9 70 20 70 11 0 20 -31 20 -70z m-2078 33 c12 18 17 8 18 -35 0 -69 -13 -90 -48 -76 -16 6 -21 34 -15 74 5 35 13 52 19 37 7 -23 12 -23 26 0z m2258 -93 c0 -60 -8 -110 -17 -110 -10 0 -19 50 -20 110 -2 61 6 110 17 110 11 0 20 -49 20 -110z m480 -25 c0 -25 -9 -45 -20 -45 -11 0 -20 34 -20 75 1 56 6 67 20 45 11 -16 20 -50 20 -75z m-4764 15 c2 -69 -26 -94 -67 -59 -20 17 -29 17 -29 1 0 -13 -42 -22 -110 -22 -108 0 -110 1 -110 59 0 57 3 59 105 65 57 3 128 8 157 11 45 5 52 -3 54 -55z m2844 -10 c0 -17 -18 -30 -40 -30 -22 0 -40 13 -40 30 0 17 18 30 40 30 22 0 40 -13 40 -30z m-5732 -7 c21 -33 -43 -95 -70 -69 -19 19 -19 31 1 55 29 35 53 40 69 14z m1972 -43 c0 -37 -10 -60 -27 -60 -16 0 -28 24 -29 60 -1 40 8 60 27 60 19 0 29 -21 29 -60z m140 40 c0 -11 -20 -21 -45 -23 l-45 -2 45 -9 c69 -13 57 -66 -15 -66 -53 0 -60 7 -60 60 0 53 7 60 60 60 33 0 60 -9 60 -20z m930 -10 c0 -11 -29 -23 -65 -26 -63 -6 -90 22 -40 43 38 16 105 5 105 -17z m-3059 -108 c-6 -9 7 -22 29 -28 22 -6 40 -26 40 -46 0 -33 -2 -33 -31 3 -30 37 -31 37 -20 -16 15 -72 -11 -70 -55 3 -38 65 -43 90 -15 73 10 -6 24 -3 31 9 7 11 17 20 22 20 6 0 5 -8 -1 -18z m7069 -7 c1 -18 5 -18 18 2 22 35 102 11 102 -30 0 -20 -11 -27 -32 -19 -17 7 -53 12 -80 12 -29 0 -48 12 -48 30 0 17 9 30 20 30 11 0 20 -11 20 -25z m-7126 -87 c3 -10 -25 -18 -64 -18 -67 0 -84 10 -58 35 17 17 115 4 122 -17z m738 -140 c5 -41 18 -86 28 -98 13 -16 8 -23 -15 -24 -41 0 -71 38 -43 55 10 7 1 29 -22 49 -33 30 -39 31 -29 6 14 -38 -15 -61 -58 -44 -54 20 17 107 78 96 39 -7 46 -2 35 27 -7 19 -6 29 2 22 8 -7 19 -47 24 -89z m6450 57 c3 -33 3 -33 12 0 15 58 46 39 46 -27 0 -49 -7 -60 -32 -50 -17 7 -40 12 -50 12 -10 0 -18 23 -18 50 0 56 39 70 42 15z m-91 -148 c0 -19 -7 -30 -15 -24 -20 12 -20 -16 -1 -43 24 -32 65 -32 65 0 0 17 8 30 18 30 10 0 35 5 55 12 29 9 31 7 9 -8 -23 -17 -15 -29 40 -62 69 -43 67 -59 -3 -21 -24 12 -39 13 -39 1 0 -10 11 -22 25 -27 14 -5 -9 -8 -50 -7 -41 1 -75 9 -75 17 0 8 -9 15 -20 15 -11 0 -20 -13 -20 -30 0 -16 -10 -30 -21 -30 -12 0 -16 9 -10 19 16 26 -9 123 -29 111 -18 -11 -46 50 -30 66 5 6 10 0 10 -14 0 -13 9 -19 20 -12 12 7 17 19 12 27 -5 8 6 14 25 14 19 0 34 -15 34 -34z m457 11 c18 -7 32 -25 32 -40 0 -15 11 -28 25 -28 17 -1 16 -7 -4 -19 -34 -22 -42 -17 -49 29 -3 18 -18 41 -33 51 -33 21 -17 25 29 7z m296 -108 c-13 -22 -24 -53 -24 -70 0 -16 -9 -30 -20 -30 -11 0 -20 -13 -20 -30 0 -16 -10 -30 -21 -30 -12 0 -16 9 -9 20 7 11 1 20 -12 20 -13 0 -6 16 16 35 62 54 114 165 63 133 -15 -9 -18 -5 -8 11 11 18 21 19 38 2 16 -16 15 -32 -3 -61z m-143 0 c39 0 18 -76 -24 -87 -32 -8 -37 -5 -20 12 36 36 27 52 -22 42 -42 -9 -42 -8 -10 19 19 15 36 41 37 56 2 17 6 14 12 -7 5 -19 17 -35 27 -35z m-6516 -71 c-17 -13 -25 -34 -16 -47 8 -13 4 -37 -10 -53 -27 -32 6 -90 48 -87 15 1 14 5 -2 11 -29 12 -34 87 -6 87 10 0 28 -16 39 -35 13 -22 21 -25 21 -9 1 15 10 21 20 14 11 -6 26 11 33 39 7 28 21 51 31 51 11 0 14 -9 7 -20 -7 -11 -2 -20 10 -20 13 0 18 -16 11 -38 -7 -21 -5 -43 5 -49 48 -30 11 -143 -48 -143 -44 0 -57 -8 -52 -35 8 -48 -37 -45 -50 4 -5 21 -24 44 -41 50 -25 10 -26 7 -5 -19 29 -34 -1 -41 -34 -8 -29 29 -72 3 -58 -34 6 -15 -1 -39 -16 -52 -29 -28 -19 -96 14 -96 16 0 16 -6 0 -22 -26 -26 -103 41 -112 97 -3 19 -16 54 -29 77 -17 32 -17 48 0 65 14 14 15 23 2 23 -11 0 -20 13 -20 28 0 33 84 29 119 -7 19 -18 15 -20 -16 -11 -40 13 -40 13 0 -21 40 -34 39 -34 -7 -23 -26 6 -42 6 -35 -1 6 -6 2 -23 -11 -38 -14 -18 -15 -27 -1 -27 11 0 25 11 31 25 5 14 11 5 11 -19 2 -31 11 -41 32 -33 16 6 25 18 20 27 -17 28 11 76 51 86 22 6 38 27 38 47 -2 34 -3 35 -16 2 -13 -32 -17 -33 -58 -4 -51 35 -62 94 -15 76 17 -6 30 -25 30 -42 0 -18 6 -26 13 -19 7 7 -3 54 -22 105 -35 91 -26 151 12 82 20 -34 22 -34 47 0 22 31 20 40 -12 63 -21 15 -34 34 -28 44 6 9 32 -2 58 -26 42 -37 44 -45 17 -65z m119 36 c26 -23 29 -35 10 -55 -30 -32 -44 -24 -80 49 -33 64 -2 67 70 6z m-1631 4 c15 -39 -3 -57 -42 -42 -17 7 -25 25 -19 42 16 40 46 40 61 0z m7798 -24 c-16 -17 -131 -19 -131 -4 0 11 14 19 31 19 17 0 26 8 20 18 -6 10 11 8 38 -5 26 -12 45 -25 42 -28z m-219 -48 c9 -15 5 -18 -10 -8 -16 9 -32 -7 -48 -48 -18 -49 -33 -61 -64 -52 -22 6 -55 11 -74 11 -18 0 -37 16 -42 35 -7 25 -10 22 -12 -12 -2 -50 -46 -51 -53 0 -3 17 20 39 53 52 33 12 58 13 58 3 0 -10 10 -18 21 -18 12 0 15 11 6 25 -11 20 -8 19 17 0 32 -26 96 -15 96 17 0 26 35 22 52 -5z m39 -58 c7 -11 2 -33 -11 -49 -13 -16 -18 -38 -11 -49 8 -12 0 -16 -19 -8 -18 7 -28 24 -22 38 5 15 0 30 -13 34 -29 10 -1 55 35 55 15 0 33 -9 41 -21z m-117 -76 c20 17 26 14 26 -9 0 -18 -8 -37 -18 -43 -10 -6 -16 -27 -13 -46 3 -21 -15 -44 -47 -58 -29 -13 -41 -24 -27 -25 14 -1 25 -15 25 -30 0 -16 11 -32 25 -37 14 -5 0 -13 -30 -19 -44 -8 -51 -5 -34 15 17 20 11 23 -23 14 -30 -8 -40 -4 -30 12 8 13 6 23 -5 23 -10 0 -24 -13 -30 -30 -18 -46 -53 -36 -48 14 9 84 117 159 138 97 4 -12 18 -13 37 -1 25 15 25 29 5 83 -18 46 -18 58 -1 41 17 -17 30 -17 50 -1z m-7287 -137 c20 8 25 0 18 -28 -9 -36 -13 -37 -45 -8 -19 17 -49 25 -67 18 -18 -7 -33 -3 -33 8 0 30 46 42 75 19 13 -11 37 -15 52 -9z m577 -39 c-10 -20 -14 -49 -9 -64 8 -22 2 -22 -33 0 -37 23 -39 30 -13 49 17 12 24 29 16 38 -8 9 -4 10 10 2 14 -8 25 -4 25 10 0 14 5 19 12 13 6 -6 3 -28 -8 -48z m458 10 c16 -27 0 -94 -28 -110 -11 -8 -14 -3 -6 10 9 14 1 23 -18 23 -18 0 -27 9 -20 20 7 12 21 15 31 9 11 -6 19 -1 19 12 0 14 -17 19 -40 13 -22 -6 -40 -7 -40 -4 0 4 -5 21 -12 37 -14 36 91 26 114 -10z m-133 -8 c41 -42 40 -77 -2 -60 -19 7 -41 1 -49 -13 -9 -14 -22 -19 -30 -11 -7 8 -1 29 14 48 19 23 20 30 3 20 -16 -10 -25 -4 -25 16 0 40 48 40 89 0z"/> <path d="M3087 2470 c0 -88 3 -122 8 -74 4 47 4 119 0 160 -5 40 -8 2 -8 -86z"/> <path d="M3362 2390 c-2 -66 4 -110 17 -110 12 0 21 46 21 110 0 61 -7 110 -17 110 -9 0 -18 -49 -21 -110z"/> <path d="M3290 1178 c-59 -13 -59 -13 -7 -16 30 -1 58 -13 64 -27 8 -20 10 -20 11 0 1 14 26 25 55 25 30 0 48 6 40 13 -18 19 -90 20 -163 5z"/> <path d="M8972 2930 c-25 -56 -32 -190 -9 -190 29 0 40 48 33 143 -5 70 -9 79 -24 47z"/> <path d="M3846 2914 c-14 -24 -7 -27 98 -41 92 -12 141 9 93 39 -34 21 -178 22 -191 2z"/> <path d="M4109 2904 c-31 -22 -30 -61 1 -56 16 2 35 10 43 18 8 8 35 0 60 -16 26 -17 47 -22 47 -12 0 19 -53 43 -88 40 -10 -1 -23 8 -30 19 -7 12 -22 15 -33 7z"/> <path d="M0 2590 l0 -110 126 0 c69 0 135 -9 146 -20 12 -12 92 -29 179 -39 88 -10 176 -25 196 -32 20 -8 55 -16 78 -17 24 -1 56 -27 75 -62 18 -33 46 -60 62 -61 15 0 39 -7 53 -16 30 -19 33 11 4 40 -14 14 -14 37 0 75 43 111 14 137 -159 140 -70 2 -91 10 -97 39 -5 28 2 34 30 25 24 -7 46 1 60 24 21 34 13 36 -120 34 -79 -1 -158 5 -175 13 -18 9 -85 20 -150 27 -65 6 -131 15 -148 20 -16 5 -59 14 -95 20 l-65 11 0 -111z"/> <path d="M1200 2576 c-24 -19 -37 -44 -30 -55 11 -19 -41 -30 -103 -23 -40 5 -50 -95 -15 -149 38 -57 53 -51 63 24 8 61 49 107 94 107 18 0 37 14 44 30 6 17 25 30 42 30 18 0 26 6 19 13 -8 7 2 24 21 38 29 21 25 24 -29 22 -35 -1 -83 -18 -106 -37z"/> <path d="M8490 2599 c-36 -15 -35 -16 11 -18 27 0 69 -14 93 -31 39 -27 42 -27 37 5 -4 19 -17 32 -31 29 -13 -3 -35 3 -47 13 -13 10 -41 11 -63 2z"/> <path d="M8900 2580 c0 -10 -12 -14 -27 -8 -15 6 -33 -4 -40 -22 -7 -18 -23 -26 -35 -19 -12 8 -47 -5 -79 -28 -38 -29 -61 -35 -70 -21 -8 12 -20 14 -26 5 -21 -30 -123 -68 -123 -47 0 11 -9 20 -20 20 -36 0 -21 -58 20 -80 32 -17 40 -15 40 8 0 48 34 55 112 23 83 -35 168 -41 168 -11 0 11 14 20 30 20 17 0 30 9 30 20 0 11 9 20 20 20 11 0 20 -13 20 -28 0 -15 14 -33 30 -39 34 -13 41 -104 10 -123 -30 -18 -24 -43 10 -43 40 0 43 204 3 219 -17 7 -23 32 -18 69 6 42 -1 63 -23 72 -18 6 -32 3 -32 -7z"/> <path d="M8100 2517 c0 -15 -18 -39 -40 -52 -22 -14 -40 -36 -40 -49 0 -14 11 -10 25 9 29 37 87 49 146 29 88 -30 249 -33 249 -5 0 15 11 33 25 39 14 7 0 8 -30 2 -39 -8 -55 -3 -55 17 0 24 -11 24 -75 2 -105 -38 -132 -36 -116 6 11 28 8 30 -11 10 -18 -17 -32 -18 -52 -2 -19 16 -26 15 -26 -6z"/> <path d="M6410 2480 c7 -12 20 -16 28 -11 9 5 50 -26 93 -70 42 -43 91 -79 108 -79 19 0 -1 28 -49 70 -44 37 -69 69 -55 69 32 1 157 -75 148 -90 -3 -7 -1 -18 5 -24 7 -6 12 -2 12 9 0 12 29 28 65 36 l65 15 -90 28 c-49 15 -124 30 -165 33 -41 2 -75 11 -75 19 0 8 -23 15 -51 15 -30 0 -46 -9 -39 -20z"/> <path d="M6825 2360 c-68 -108 -80 -104 475 -182 259 -37 454 -70 435 -74 -33 -7 -107 1 -525 55 -88 12 -213 25 -277 30 -83 6 -131 21 -162 50 -51 48 -80 53 -64 11 9 -24 -5 -30 -66 -30 -43 0 -83 -7 -89 -16 -5 -9 39 -13 99 -8 86 6 112 1 121 -24 14 -36 88 -44 88 -10 0 16 9 15 30 -2 16 -13 57 -21 90 -16 33 5 60 3 60 -5 0 -7 61 -20 135 -27 74 -8 297 -35 495 -62 198 -26 539 -71 757 -100 515 -69 552 -58 133 40 -126 29 -556 134 -955 232 -830 204 -748 189 -780 138z"/> <path d="M1102 2224 c-1 -26 -11 -41 -22 -34 -11 7 -14 -2 -7 -21 10 -26 16 -27 29 -6 12 19 18 12 19 -23 1 -27 6 -40 12 -27 5 13 0 53 -10 90 -15 52 -20 57 -21 21z"/> <path d="M4598 2146 c-26 -30 -33 -44 -16 -30 18 14 47 19 63 13 17 -6 37 -2 44 10 8 12 24 16 37 10 13 -7 7 2 -15 20 -51 41 -56 40 -113 -23z"/> <path d="M8962 2172 c-13 -15 -22 -35 -20 -45 9 -52 -8 -67 -72 -67 -65 0 -69 -3 -45 -40 17 -28 46 -40 100 -40 l75 0 -3 110 c-3 122 -2 122 -35 82z"/> <path d="M887 2142 c-25 -29 -49 -35 -113 -27 -52 7 -76 4 -67 -9 7 -12 -8 -21 -37 -21 -29 0 -50 12 -50 28 0 31 -32 36 -50 7 -15 -24 -216 -24 -300 0 -33 9 -107 21 -163 25 l-104 9 0 -85 c0 -83 1 -85 55 -69 62 17 122 -7 122 -51 0 -16 17 -29 38 -29 21 0 44 -11 50 -25 6 -14 9 -7 6 15 -3 33 9 41 66 44 39 3 88 9 110 14 22 5 49 10 60 12 59 10 -201 60 -324 62 -107 2 -146 10 -155 32 -10 26 12 28 154 17 217 -17 378 -49 364 -72 -6 -11 9 -20 35 -21 224 -7 296 -6 296 6 0 25 84 40 106 18 12 -12 36 -22 54 -22 18 0 43 -11 56 -24 14 -14 58 -26 99 -28 41 -1 60 1 42 6 -18 4 -39 28 -46 52 -13 43 -14 43 -31 4 -14 -32 -17 -33 -19 -7 0 21 -30 43 -76 58 -85 27 -149 76 -133 102 20 32 -12 17 -45 -21z"/> <path d="M5750 2146 c-154 -14 -649 -57 -1100 -96 -451 -39 -1022 -89 -1270 -112 -247 -23 -549 -49 -670 -59 -299 -24 -387 -38 -402 -62 -9 -14 7 -17 44 -10 32 7 175 22 318 33 249 20 342 28 575 50 515 48 810 71 854 67 28 -3 60 0 71 6 11 7 90 18 175 25 85 7 193 17 240 22 47 4 207 18 355 31 149 12 297 25 330 29 33 4 245 22 470 41 226 19 424 42 440 52 36 21 -41 18 -430 -17z"/> <path d="M532 1873 c12 -32 162 -86 182 -66 25 25 -50 78 -122 86 -54 6 -69 1 -60 -20z"/> <path d="M7025 1760 c-5 -103 -1 -120 30 -122 19 0 51 -4 70 -8 31 -6 35 10 32 127 -2 119 -4 125 -17 53 -13 -74 -15 -75 -17 -17 -3 55 -32 87 -80 87 -7 0 -15 -54 -18 -120z"/> <path d="M13 1806 c-21 -20 -15 -106 7 -106 11 0 20 12 20 26 0 19 34 26 118 26 66 -1 114 -9 108 -18 -6 -10 6 -14 27 -11 20 3 47 0 60 -8 13 -8 28 -2 34 14 12 30 -127 65 -166 41 -12 -7 -21 -3 -21 8 0 12 -30 20 -67 18 -37 -1 -76 3 -87 10 -11 7 -26 7 -33 0z"/> <path d="M7536 1794 c14 -16 15 -36 3 -55 -49 -77 -23 -159 51 -159 l70 0 0 125 c-1 88 -6 116 -20 95 -11 -16 -20 -21 -21 -10 -1 11 -10 2 -19 -20 -16 -38 -17 -38 -19 5 0 28 -14 45 -33 45 -25 0 -27 -7 -12 -26z"/> <path d="M8826 1798 c-18 -18 -16 -30 6 -53 34 -34 23 -57 -16 -33 -30 19 -132 12 -175 -12 -22 -12 -11 -24 43 -46 39 -16 76 -39 83 -49 7 -11 48 -17 93 -15 44 3 86 -3 92 -13 6 -9 21 -17 34 -17 14 0 12 8 -6 20 -20 13 -22 19 -5 20 40 0 31 116 -10 124 -19 4 -35 24 -35 46 0 46 -68 64 -104 28z"/> <path d="M7730 1680 c0 -115 2 -120 50 -120 28 0 124 -6 215 -13 170 -13 235 15 95 42 -38 7 -70 24 -70 37 -1 17 -5 17 -15 2 -8 -12 -49 -27 -90 -34 l-75 -11 0 98 c0 74 -8 99 -29 99 -18 0 -25 -12 -18 -30 6 -16 1 -30 -11 -30 -12 0 -22 18 -22 40 0 22 -7 40 -15 40 -8 0 -15 -54 -15 -120z"/> <path d="M787 1730 c8 -24 206 -30 263 -8 48 19 39 20 -135 25 -83 2 -132 -5 -128 -17z"/> <path d="M8214 1702 c5 -20 0 -44 -12 -51 -31 -19 -28 -131 3 -131 14 0 45 -6 70 -13 43 -11 45 -6 45 106 0 116 -1 119 -58 123 -48 4 -57 -2 -48 -34z"/> <path d="M7200 1662 c0 -30 19 -36 165 -51 133 -14 185 8 90 39 -79 25 -255 34 -255 12z"/> <path d="M8440 1619 c0 -16 -19 -38 -43 -49 -67 -31 -54 -59 31 -66 75 -7 77 -6 63 50 -16 65 -51 109 -51 65z"/> <path d="M4270 1469 c-176 -14 -365 -27 -420 -30 -73 -4 -84 -7 -40 -14 57 -8 978 50 1020 65 41 14 -251 3 -560 -21z"/> <path d="M8554 1433 c-7 -18 -24 -31 -38 -28 -14 3 -28 -15 -32 -40 -4 -27 -21 -45 -43 -45 -39 0 -36 -89 5 -114 13 -7 16 0 9 18 -21 55 40 120 89 94 37 -20 41 -18 31 19 -6 22 -4 44 4 47 9 3 9 23 2 45 -13 34 -15 35 -27 4z"/> <path d="M4440 1379 c-82 -9 -156 -11 -165 -6 -8 5 -15 -16 -15 -47 0 -60 156 -79 305 -37 50 14 88 117 40 108 -8 -1 -82 -9 -165 -18z"/> <path d="M8885 1358 c-2 -32 3 -36 24 -19 19 16 31 16 40 2 22 -35 51 -24 51 19 0 59 -110 57 -115 -2z"/> <path d="M4031 1357 c-44 -10 -91 -14 -105 -8 -18 7 -26 -9 -26 -48 0 -32 -7 -61 -15 -66 -8 -5 -1 -4 15 2 17 6 77 14 135 19 101 7 105 10 105 66 0 32 -7 57 -15 56 -8 -1 -51 -10 -94 -21z"/> <path d="M2270 1001 c5 -39 1 -58 -12 -50 -11 7 -38 -3 -59 -22 -23 -20 -39 -25 -39 -12 0 13 -14 23 -31 23 -19 0 -26 10 -17 25 10 19 7 18 -14 -1 -23 -22 -23 -28 0 -43 15 -9 21 -27 13 -39 -22 -36 -42 -26 -67 33 -23 55 -23 54 -13 -14 5 -38 16 -74 24 -80 45 -33 93 -107 63 -96 -25 9 -31 -3 -30 -55 2 -68 32 -77 32 -10 0 21 16 47 35 58 19 12 24 21 10 21 -30 1 -33 53 -5 71 12 7 19 1 15 -13 -3 -14 14 -29 36 -32 35 -6 41 3 37 56 -2 34 1 57 7 51 6 -6 22 4 36 23 22 30 24 27 15 -20 -6 -30 -18 -50 -27 -44 -9 5 -14 -15 -10 -46 7 -66 -8 -99 -30 -63 -12 19 -23 11 -41 -27 -13 -30 -32 -49 -41 -43 -9 6 -17 6 -17 1 0 -6 26 -23 58 -39 49 -25 57 -25 48 -2 -7 19 4 28 34 28 32 0 41 9 32 31 -6 18 -3 26 8 19 19 -12 29 17 21 60 -2 11 8 9 22 -5 35 -35 84 -32 70 5 -6 16 -5 27 3 25 36 -12 133 104 108 129 -30 30 -32 63 -3 45 12 -7 10 6 -4 28 -22 36 -28 38 -43 11 -13 -22 -33 -27 -69 -19 -33 9 -57 4 -68 -13 -13 -21 -16 -21 -17 0 0 15 -10 20 -23 12 -16 -10 -20 -4 -12 17 7 18 0 42 -15 55 -22 19 -26 12 -20 -39z m239 -143 c-7 -11 -26 -16 -41 -10 -15 6 -28 2 -28 -8 0 -36 -83 -67 -102 -37 -43 67 5 146 53 87 17 -22 26 -29 19 -15 -7 14 0 25 15 25 15 0 39 -11 53 -25 22 -20 24 -16 13 25 -11 42 -9 44 9 15 12 -19 16 -45 9 -57z"/> <path d="M2925 966 c-21 -45 -20 -59 5 -84 27 -27 30 -27 30 5 0 19 8 30 19 24 32 -20 42 23 11 49 -16 13 -25 33 -19 42 6 10 4 18 -5 18 -9 0 -27 -25 -41 -54z"/> <path d="M8980 972 c0 -15 -14 -33 -31 -40 -19 -7 -26 -3 -18 10 10 15 2 16 -24 3 -20 -10 -92 -17 -159 -14 -84 3 -121 -3 -121 -20 0 -13 27 -25 61 -27 34 -1 118 -6 187 -11 l125 -8 0 68 c0 37 -4 67 -10 67 -5 0 -10 -13 -10 -28z"/> <path d="M6056 923 c7 -21 14 -23 19 -7 9 26 45 13 45 -15 0 -21 -39 -17 -78 8 -19 11 -24 10 -15 -4 7 -12 -2 -25 -21 -29 -26 -5 -17 -16 34 -40 41 -20 77 -26 90 -16 14 12 21 4 21 -21 0 -21 -7 -39 -16 -39 -9 0 -7 -17 4 -38 14 -27 14 -41 0 -46 -12 -4 -8 -22 10 -46 29 -39 30 -38 30 13 1 60 36 65 90 11 46 -46 53 -43 43 16 -5 28 -2 50 7 50 9 0 13 26 9 57 -4 39 2 56 23 56 33 0 39 -25 9 -43 -11 -7 -19 -23 -18 -36 1 -17 4 -16 12 2 7 18 17 19 34 5 19 -15 25 -3 24 48 -1 57 -7 65 -36 49 -22 -12 -38 -10 -48 5 -10 16 -23 11 -42 -15 -15 -21 -36 -39 -47 -40 -10 -2 -29 -4 -40 -5 -12 -2 -15 -13 -7 -26 8 -14 5 -18 -8 -10 -12 8 -21 29 -20 48 1 19 -5 50 -13 68 -11 26 -5 32 22 27 21 -4 37 -8 37 -10 0 -21 76 -9 84 13 9 25 15 25 28 4 14 -22 17 -22 18 -1 0 15 10 20 25 12 14 -8 18 -7 9 3 -30 33 -111 26 -101 -9 8 -23 1 -21 -21 7 -18 21 -32 29 -32 17 0 -13 -16 -19 -35 -16 -19 4 -35 9 -35 10 0 2 -24 6 -53 9 -41 3 -51 -3 -41 -26z"/> <path d="M4932 885 c-7 -7 -33 -16 -56 -19 -63 -10 -75 -66 -14 -66 11 0 15 9 8 20 -7 11 6 20 27 20 35 0 38 -8 23 -60 -10 -35 -9 -64 1 -71 21 -13 25 0 20 63 -2 24 14 48 38 60 41 18 41 19 4 42 -21 13 -44 18 -51 11z"/> <path d="M4142 854 c4 -42 -26 -114 -49 -116 -13 0 -39 -4 -58 -8 -19 -3 -30 2 -24 12 6 10 -8 18 -32 18 -37 0 -40 -5 -19 -30 14 -17 20 -37 13 -44 -7 -7 -13 0 -13 16 -1 23 -4 23 -20 -2 -14 -22 -19 -23 -20 -4 0 15 -10 20 -23 12 -16 -10 -20 -4 -11 19 9 24 2 33 -27 33 -21 0 -39 10 -39 21 0 12 -9 16 -20 9 -11 -7 -20 -1 -20 14 -1 19 -6 18 -20 -4 -12 -18 -20 -21 -20 -6 0 13 -18 20 -40 16 -22 -4 -40 1 -40 11 0 11 -9 19 -20 19 -11 0 -19 -27 -16 -60 3 -35 16 -60 31 -60 15 0 22 8 16 19 -7 10 7 17 30 15 37 -2 41 -12 32 -73 -9 -56 -7 -63 9 -35 17 29 27 31 50 13 22 -19 28 -18 28 1 0 18 7 19 26 3 14 -12 45 -16 69 -10 47 12 59 -83 15 -120 -11 -9 4 -11 34 -4 44 9 53 5 43 -20 -7 -17 2 -42 20 -55 25 -18 29 -39 17 -82 l-16 -59 -42 54 c-49 63 -87 69 -76 13 4 -22 0 -40 -9 -40 -23 0 -62 51 -51 67 6 7 4 9 -2 4 -7 -5 -26 4 -42 20 -16 16 -39 29 -52 28 -13 0 -8 -9 11 -21 19 -11 35 -30 35 -41 0 -14 -11 -13 -30 3 -26 21 -30 16 -30 -37 0 -47 -7 -59 -30 -50 -16 6 -30 1 -30 -11 0 -12 9 -22 20 -22 11 0 20 -16 20 -35 1 -30 3 -31 20 -5 16 26 23 24 49 -10 26 -35 30 -35 30 -6 1 18 12 40 24 48 16 10 20 4 11 -19 -8 -22 -2 -39 16 -46 16 -6 24 -21 17 -32 -7 -12 -4 -15 8 -8 12 7 37 7 56 0 32 -12 31 -15 -8 -30 -49 -18 -108 -2 -92 25 6 10 -2 18 -19 18 -16 0 -35 -9 -41 -19 -7 -11 -25 -14 -42 -8 -16 6 -29 1 -29 -12 0 -13 8 -19 17 -13 9 6 16 -2 16 -17 0 -16 -13 -23 -31 -16 -25 8 -27 5 -9 -14 13 -14 19 -38 13 -53 -8 -22 13 -28 92 -28 58 0 102 9 102 21 0 12 -11 15 -25 7 -15 -8 -18 -7 -8 4 9 10 25 19 35 20 10 2 28 4 39 6 12 1 16 11 9 22 -7 11 1 14 19 8 21 -8 31 0 32 25 2 34 3 34 19 -3 25 -59 23 -76 -8 -64 -15 6 -44 0 -63 -14 -30 -22 -22 -26 53 -28 58 -2 78 3 60 14 -22 15 -18 28 25 71 61 61 66 75 21 57 -28 -10 -29 -6 -8 34 23 42 27 43 44 12 19 -33 22 -33 62 2 38 32 40 32 16 1 -23 -30 -22 -35 4 -35 22 0 29 14 23 43 -10 54 -12 56 -76 61 -29 3 -53 12 -53 20 0 8 27 10 59 3 51 -10 59 -6 52 27 -4 23 4 39 19 39 26 0 29 -41 5 -65 -7 -7 -1 -25 15 -40 37 -38 48 -35 36 11 -8 31 -2 36 32 27 30 -7 42 -1 42 22 0 19 -16 32 -40 32 -43 0 -57 40 -15 41 14 0 9 9 -10 21 -19 11 -44 15 -54 9 -10 -7 -24 -3 -31 9 -7 11 9 20 39 20 57 0 60 6 29 64 -17 32 -16 45 5 58 21 14 19 17 -8 18 -19 0 -35 -9 -35 -19 0 -11 -13 -15 -29 -9 -16 6 -24 22 -19 35 5 14 -10 26 -34 28 -52 4 -77 27 -43 39 14 5 25 18 25 29 0 11 -9 14 -20 7 -11 -7 -20 -2 -20 11 0 13 14 18 31 11 50 -19 112 30 83 66 -16 20 -16 25 -1 16 13 -8 27 2 32 23 8 30 0 35 -41 27 -28 -6 -45 -2 -38 9 6 10 -6 20 -28 22 -22 1 -38 -8 -36 -21z m-22 -566 c0 -16 -13 -34 -30 -41 -16 -6 -24 -21 -17 -32 7 -12 4 -15 -8 -8 -15 9 -15 30 1 72 22 59 54 64 54 9z m-260 -208 c-10 -19 -17 -38 -14 -43 2 -4 -6 4 -18 17 -12 14 -28 20 -35 12 -7 -7 -13 6 -13 28 0 32 10 39 50 31 40 -8 45 -16 30 -45z"/> <path d="M751 829 c-21 -16 -29 -29 -17 -29 12 0 18 -18 12 -40 -6 -22 -19 -40 -28 -40 -10 0 -18 -14 -18 -31 0 -19 9 -26 23 -17 16 10 20 4 12 -17 -7 -19 0 -36 17 -43 17 -7 25 -3 18 8 -7 11 7 20 30 20 23 0 37 8 31 18 -17 27 41 42 66 17 33 -33 39 -13 20 57 -13 49 -31 66 -78 75 -34 7 -56 22 -49 33 17 27 8 24 -39 -11z"/> <path d="M3361 817 c0 -19 -12 -38 -26 -44 -14 -5 -5 -11 20 -11 43 -2 67 -42 25 -42 -39 0 -50 -4 -75 -25 -20 -16 -23 -13 -13 12 7 18 3 33 -8 33 -12 0 -25 -16 -30 -35 -9 -32 -10 -32 -12 1 -1 20 -11 31 -23 23 -11 -7 -34 -2 -50 12 -20 17 -29 17 -29 1 0 -12 9 -22 21 -22 13 0 12 -15 -3 -43 -20 -38 -18 -42 20 -32 23 6 42 3 42 -7 0 -10 14 -18 30 -18 17 0 30 -8 30 -19 0 -10 20 -14 45 -8 25 6 57 11 71 12 17 1 19 8 5 22 -25 25 -28 60 -5 45 29 -17 56 57 43 118 -11 53 -15 55 -29 21 -17 -38 -17 -38 -32 0 -12 32 -15 33 -17 6z"/> <path d="M5300 798 c-27 -23 -70 -58 -95 -79 -25 -21 -45 -32 -45 -24 0 8 -8 3 -18 -12 -25 -40 20 -126 53 -99 13 11 19 30 12 41 -8 13 5 16 37 8 37 -9 60 -1 88 32 28 32 29 37 5 19 -29 -23 -32 -21 -23 13 6 26 21 36 40 29 25 -10 27 -5 9 28 -15 29 -15 46 2 63 39 39 -12 24 -65 -19z"/> <path d="M5434 827 c-23 -23 -16 -50 9 -35 16 10 20 1 12 -28 -6 -25 0 -46 18 -52 21 -8 25 2 18 42 -11 60 -37 93 -57 73z"/> <path d="M6449 779 c0 -20 6 -32 14 -27 8 5 25 -9 37 -31 12 -24 13 -41 3 -41 -11 0 -15 -18 -9 -40 13 -47 -11 -51 -65 -11 -68 52 -98 11 -31 -41 24 -18 16 -38 -43 -115 -62 -81 -72 -88 -81 -52 -6 23 -23 39 -37 35 -15 -3 -27 3 -28 14 0 11 14 17 30 13 20 -4 15 7 -14 32 -24 22 -40 43 -36 48 5 5 -31 8 -79 8 -48 0 -84 -3 -80 -8 5 -5 0 -25 -11 -46 -14 -25 -14 -37 0 -37 11 0 14 -14 8 -31 -7 -17 -20 -28 -31 -24 -10 3 -16 10 -13 16 4 5 -9 30 -27 56 -18 26 -28 60 -22 75 6 17 -3 28 -22 28 -18 0 -32 -9 -32 -19 0 -11 -13 -15 -30 -8 -16 6 -30 1 -30 -11 0 -12 14 -22 30 -22 33 0 41 -31 12 -49 -10 -6 -23 0 -28 14 -6 14 -7 -2 -4 -35 8 -83 8 -84 31 -50 15 22 17 16 7 -25 -10 -47 -6 -55 31 -55 24 0 38 -8 32 -18 -6 -10 0 -22 14 -27 20 -7 19 -16 -2 -42 -24 -29 -23 -33 10 -34 24 0 14 -10 -28 -29 -36 -16 -63 -35 -60 -44 3 -9 -4 -18 -15 -21 -27 -7 -28 38 -1 73 15 21 14 31 -5 37 -20 7 -20 15 -2 37 19 23 17 27 -9 16 -18 -7 -33 -21 -33 -31 0 -10 -20 -9 -45 3 -45 22 -45 22 2 -18 25 -23 40 -50 33 -61 -6 -11 11 -44 39 -72 29 -28 47 -59 42 -67 -11 -18 6 -22 139 -31 98 -7 154 21 104 53 -15 10 -8 15 19 16 55 0 74 49 32 84 -28 23 -31 20 -20 -19 12 -50 -52 -68 -72 -20 -6 15 -16 7 -24 -20 -8 -26 -30 -45 -51 -45 -24 0 -33 10 -25 30 6 17 19 30 29 30 10 0 18 23 18 50 0 57 29 66 56 18 15 -27 20 -27 29 -4 12 33 -19 80 -75 112 -39 22 -39 23 6 23 25 1 51 -14 58 -32 11 -28 16 -25 32 15 l20 48 12 -50 c26 -107 161 -53 162 65 0 30 8 55 19 55 31 0 43 -36 16 -47 -14 -5 0 -11 31 -11 33 -1 51 6 44 18 -7 11 2 20 19 20 18 0 37 14 44 30 6 17 24 30 39 30 40 0 22 86 -19 92 -19 2 -33 -6 -31 -19 8 -63 -2 -76 -32 -46 -39 39 -20 86 43 102 37 9 46 21 37 51 -10 30 -4 37 29 30 24 -4 37 1 30 11 -6 11 -19 15 -28 9 -9 -5 -31 12 -49 39 -38 59 -41 78 -7 59 14 -8 18 -7 9 3 -28 31 -65 25 -65 -12z m-300 -247 c51 20 50 -26 -1 -53 -60 -32 -104 8 -63 58 15 17 26 19 31 6 3 -11 19 -16 33 -11z"/> <path d="M6350 720 c-18 -29 -11 -35 54 -47 33 -6 57 0 63 17 6 16 -2 24 -23 21 -19 -3 -44 2 -57 13 -15 11 -29 10 -37 -4z"/> <path d="M5533 704 c-16 -26 20 -70 45 -55 32 19 27 71 -7 71 -16 0 -33 -7 -38 -16z"/> <path d="M8613 678 c-30 -22 -48 -50 -41 -60 6 -11 0 -33 -14 -50 -13 -17 -16 -29 -6 -27 50 10 88 -4 88 -32 0 -17 8 -26 18 -20 10 6 33 5 52 -2 24 -9 27 -17 9 -28 -30 -18 -7 -59 32 -59 16 0 29 -8 29 -18 0 -10 14 -23 31 -30 24 -9 21 2 -10 41 -49 63 -44 74 26 56 53 -13 72 -106 24 -111 -12 -2 -30 -5 -41 -7 -11 -3 -31 -6 -45 -8 -34 -4 -32 -83 3 -83 15 0 33 13 39 29 8 22 25 25 72 11 34 -10 57 -10 52 -1 -6 9 6 21 26 26 41 11 49 70 15 114 -17 22 -16 25 3 14 19 -12 25 18 25 125 0 114 -5 139 -29 130 -16 -7 -23 -25 -16 -43 7 -20 4 -27 -11 -18 -12 8 -32 -4 -44 -26 -12 -23 -35 -41 -51 -41 -35 0 -38 33 -4 47 20 8 20 10 0 11 -14 1 -25 18 -26 37 -1 29 -6 28 -32 -10 -18 -25 -47 -45 -64 -45 -29 1 -29 3 -3 20 24 15 24 19 3 20 -21 0 -22 7 -6 27 51 61 -30 70 -104 11z"/> <path d="M3446 668 c-5 -15 -4 -36 3 -47 12 -19 -13 -30 -53 -24 -8 2 -9 -12 -2 -31 9 -22 5 -28 -11 -18 -15 9 -22 -1 -21 -32 0 -25 6 -35 11 -21 6 14 22 25 36 25 43 0 128 98 117 137 -10 42 -65 49 -80 11z"/> <path d="M862 669 c-1 -12 9 -32 23 -46 20 -20 19 -28 -5 -43 -16 -10 -23 -23 -17 -30 14 -14 77 44 77 71 0 11 -13 19 -28 19 -16 0 -33 11 -39 25 -5 14 -11 16 -11 4z"/> <path d="M5380 658 c-24 -17 -21 -20 15 -12 62 14 57 -22 -5 -38 -53 -13 -69 -81 -29 -121 14 -14 3 -20 -35 -20 -45 0 -56 9 -56 46 0 26 8 47 17 47 10 0 6 14 -8 31 -26 32 -68 0 -46 -35 5 -9 -4 -22 -21 -28 -27 -10 -27 -16 -2 -41 15 -15 23 -41 17 -58 -7 -18 1 -29 20 -29 22 0 28 -11 19 -35 -7 -19 -6 -29 2 -22 8 7 38 1 66 -13 28 -15 65 -22 82 -15 21 8 26 4 15 -13 -8 -14 -27 -20 -42 -14 -14 5 -30 0 -34 -13 -4 -13 -27 -3 -55 25 l-47 47 -16 -44 c-8 -24 -20 -43 -26 -43 -5 0 -1 23 9 50 20 53 -22 75 -52 27 -9 -14 -5 -18 9 -9 34 21 28 -40 -7 -75 -16 -17 -30 -49 -30 -73 0 -23 -8 -37 -18 -31 -10 6 -14 -7 -8 -29 9 -33 4 -38 -27 -27 -30 10 -32 8 -12 -14 30 -32 33 -67 5 -49 -11 7 -20 2 -20 -11 0 -13 14 -18 32 -11 17 7 41 12 52 12 12 0 15 21 8 50 -7 27 -8 50 -3 50 25 0 91 -72 91 -99 1 -27 3 -28 20 -1 12 19 12 32 -1 37 -32 11 -21 38 20 49 22 5 43 -1 48 -13 6 -13 11 -2 11 23 1 26 -6 41 -16 35 -10 -6 -14 7 -8 29 15 58 34 63 62 19 13 -22 16 -39 7 -39 -10 0 -17 -36 -16 -80 2 -58 11 -80 33 -78 16 0 20 5 8 10 -25 10 -13 108 13 108 9 0 13 18 9 40 -4 22 7 47 24 57 21 12 26 27 14 45 -9 16 -15 51 -13 78 2 28 -1 39 -7 25 -19 -41 -88 -30 -88 14 0 29 -10 37 -35 28 -29 -9 -30 -7 -5 10 21 15 39 12 65 -11 32 -30 35 -29 35 10 0 23 9 47 19 53 10 7 15 -6 11 -29 -4 -23 1 -36 11 -29 10 6 19 2 19 -10 0 -11 20 -22 45 -23 25 0 34 -6 20 -11 -14 -6 -25 -18 -25 -28 0 -10 14 -13 30 -6 40 15 40 -46 -1 -68 -25 -15 -21 -22 25 -45 118 -57 155 -25 97 85 -28 54 -32 57 -23 15 14 -66 -10 -104 -49 -79 -16 10 -20 19 -9 19 12 0 17 38 13 90 -8 98 4 107 75 57 35 -25 40 -36 20 -48 -21 -13 -19 -20 8 -30 49 -19 67 5 38 52 -28 45 -32 127 -5 110 10 -6 24 -3 31 9 7 11 3 20 -8 20 -11 0 -16 12 -11 26 6 15 -9 48 -32 75 l-41 48 10 -55 c5 -30 2 -50 -8 -44 -9 6 -22 2 -29 -8 -6 -10 3 -23 19 -29 34 -13 41 -53 9 -53 -12 0 -16 9 -9 20 7 11 -3 20 -21 20 -23 0 -29 -10 -20 -34 7 -19 7 -28 -1 -21 -8 8 -28 3 -44 -10 -26 -21 -29 -17 -20 28 8 43 1 56 -32 65 -61 17 -76 15 -62 -8 7 -12 21 -16 30 -10 28 17 45 -29 22 -58 -12 -14 -16 -32 -8 -39 7 -7 3 -13 -9 -13 -13 0 -28 9 -35 20 -7 11 -1 20 12 20 14 0 18 7 10 15 -9 8 -35 15 -59 15 -25 0 -41 11 -38 26 4 15 -3 21 -15 14 -11 -7 -20 -3 -20 9 0 11 18 21 40 21 22 0 38 7 36 15 -3 8 7 35 20 60 29 51 -17 65 -76 23z m-139 -518 c10 0 13 14 6 30 -6 17 -1 30 11 30 29 0 28 -46 0 -74 -30 -30 -78 12 -61 54 10 25 13 24 19 -5 4 -19 15 -35 25 -35z"/> <path d="M3655 561 c-13 -46 -15 -47 -50 -15 -35 31 -39 31 -69 -4 -35 -41 -12 -87 34 -69 14 5 32 0 39 -12 17 -27 85 -28 101 -1 27 44 27 98 0 87 -15 -6 -30 6 -34 27 -6 29 -10 27 -21 -13z"/> <path d="M3248 557 c-21 -34 10 -44 45 -15 30 24 33 24 23 -4 -7 -17 -5 -44 5 -60 12 -19 16 -9 13 30 -5 58 -60 90 -86 49z"/> <path d="M5105 560 c5 -16 0 -48 -11 -70 -18 -36 -17 -37 13 -13 51 43 44 -28 -7 -72 -41 -35 -56 -125 -20 -125 11 0 19 7 18 15 -6 34 3 71 14 60 19 -19 87 50 73 74 -8 11 -17 39 -20 61 -3 22 -21 53 -38 70 -28 27 -31 27 -22 0z"/> <path d="M928 532 c-9 -23 -30 -28 -79 -21 l-67 11 19 -65 c10 -35 29 -74 42 -86 17 -15 20 -12 11 13 -6 18 -1 38 12 43 13 5 8 11 -11 11 -19 1 -35 15 -35 31 0 36 81 24 111 -17 18 -25 25 -24 46 5 21 28 23 25 16 -24 -6 -44 1 -60 29 -68 21 -5 38 -18 38 -28 0 -10 13 -7 28 7 15 14 23 34 17 44 -6 9 2 13 17 8 15 -6 26 -24 22 -42 -10 -61 35 -54 70 10 40 75 50 136 21 136 -11 0 -14 -13 -8 -30 7 -18 0 -30 -17 -30 -18 0 -25 -13 -17 -35 9 -29 7 -30 -10 -6 -13 19 -14 38 -1 53 13 16 9 27 -13 36 -57 21 -79 13 -116 -43 -20 -30 -32 -40 -26 -21 12 37 -32 84 -57 61 -9 -8 -11 0 -4 19 15 43 -22 70 -38 28z"/> <path d="M327 516 c-5 -9 5 -16 22 -16 17 0 31 -9 31 -19 0 -11 13 -15 29 -9 41 16 15 66 -32 62 -22 -1 -44 -10 -50 -18z"/> <path d="M3460 462 c0 -10 -20 -13 -45 -7 -34 8 -40 5 -23 -13 12 -13 44 -27 70 -30 26 -4 69 -14 95 -22 l48 -16 -48 -27 c-46 -27 -46 -27 13 -16 55 11 57 9 20 -14 -22 -14 -47 -26 -55 -26 -8 -1 -15 -8 -15 -16 0 -8 0 -25 0 -38 0 -14 16 -9 38 11 25 23 43 27 51 13 23 -36 56 -23 46 18 -6 22 1 43 17 49 44 17 33 52 -17 52 -72 1 -113 34 -75 62 26 19 25 20 -4 11 -19 -6 -40 -3 -47 8 -15 24 -69 25 -69 1z"/> <path d="M6590 420 c7 -12 21 -16 30 -10 9 6 23 2 30 -10 11 -18 -15 -29 -55 -22 -24 3 -17 -47 10 -77 20 -21 20 -24 0 -13 -16 9 -25 2 -25 -18 0 -19 9 -27 23 -18 15 9 18 5 8 -11 -12 -19 0 -22 51 -12 46 9 59 7 40 -6 -23 -16 -22 -26 5 -65 l33 -47 1 70 c1 50 6 59 16 32 16 -41 59 28 52 82 -2 14 -5 50 -7 80 -2 37 -8 47 -19 29 -13 -21 -22 -20 -42 5 -29 34 -172 44 -151 11z"/> <path d="M7980 380 c0 -27 11 -33 41 -26 47 13 43 50 -7 57 -21 4 -34 -8 -34 -31z"/> <path d="M8308 397 c-5 -8 9 -11 31 -7 50 9 54 -22 6 -47 -41 -20 -91 -8 -74 19 6 10 1 18 -11 18 -13 0 -19 -16 -15 -35 4 -19 19 -32 34 -29 15 3 21 -6 15 -23 -6 -15 -1 -38 11 -50 15 -15 14 -31 -6 -54 -42 -51 -40 -89 6 -89 22 0 53 -16 69 -35 16 -19 24 -26 19 -14 -6 11 -2 34 8 50 14 22 18 22 19 3 0 -15 9 -21 20 -14 11 7 20 3 20 -9 0 -11 -7 -21 -17 -21 -9 0 -16 -13 -16 -29 0 -19 17 -26 51 -22 73 9 77 12 37 28 -31 12 -31 19 -6 68 16 30 20 55 10 55 -11 0 -19 20 -19 45 0 42 -3 41 -40 -15 -28 -43 -40 -50 -40 -25 0 19 11 35 25 35 17 1 15 7 -5 20 -16 10 -45 15 -62 9 -26 -8 -31 1 -23 41 5 27 18 50 27 50 10 0 18 22 18 49 0 47 -67 67 -92 28z"/> <path d="M3380 378 c-25 -18 -25 -20 5 -11 23 8 35 1 35 -18 0 -16 -9 -29 -20 -29 -43 0 -17 -30 28 -33 54 -3 82 55 46 91 -28 28 -56 27 -94 0z"/> <path d="M6435 351 c-49 -35 -44 -71 10 -73 38 -1 35 -4 -14 -19 -33 -10 -64 -11 -70 -3 -6 8 -41 0 -78 -19 -53 -27 -59 -35 -30 -43 31 -8 30 -10 -6 -12 -24 -1 -48 9 -54 23 -8 20 -10 19 -11 -1 -1 -14 12 -47 30 -74 31 -48 22 -101 -13 -79 -11 6 -19 -2 -19 -18 0 -22 26 -29 105 -29 81 0 95 4 60 17 -25 10 -45 22 -45 28 0 18 74 1 103 -24 15 -12 82 -21 147 -20 66 1 95 6 65 10 -59 8 -80 76 -25 82 17 2 41 4 55 5 14 2 43 -4 65 -13 33 -12 31 -7 -10 30 -27 25 -48 54 -45 65 4 10 -3 14 -14 7 -10 -7 -14 -25 -8 -42 6 -16 1 -29 -11 -29 -12 0 -22 18 -22 41 0 41 -43 120 -100 182 -25 28 -36 29 -65 8z m37 -188 c2 -29 -9 -43 -35 -43 -20 0 -37 -8 -37 -18 0 -10 11 -17 25 -17 67 3 95 -8 95 -35 0 -45 -86 -37 -117 12 -22 35 -21 47 8 79 18 20 26 47 18 60 -9 15 -4 21 13 15 15 -5 29 -29 30 -53z"/> <path d="M25 347 c-48 -19 -31 -138 20 -141 25 -1 34 2 20 8 -14 5 -20 18 -14 28 6 10 2 18 -10 18 -11 0 -21 10 -21 21 0 12 7 17 16 12 9 -6 17 7 19 28 1 22 1 38 -1 37 -2 0 -15 -6 -29 -11z"/> <path d="M2020 310 c-10 -12 -11 -31 -4 -44 20 -32 109 -40 119 -11 4 14 -1 25 -13 25 -11 0 -16 13 -10 29 13 34 -64 35 -92 1z"/> <path d="M2160 310 c0 -16 9 -30 20 -30 11 0 33 -29 48 -65 16 -36 30 -51 32 -35 2 17 6 46 10 65 4 23 -6 35 -32 35 -21 0 -38 14 -38 30 0 17 -9 30 -20 30 -11 0 -20 -13 -20 -30z"/> <path d="M6960 263 c0 -24 69 -83 97 -83 12 0 23 14 23 31 0 20 -9 26 -25 16 -16 -9 -15 -2 3 20 25 30 25 34 0 29 -15 -3 -35 -15 -43 -26 -9 -12 -15 -10 -15 5 0 14 -9 25 -20 25 -11 0 -20 -8 -20 -17z"/> <path d="M8110 260 c7 -11 -12 -20 -44 -21 l-56 0 55 -34 c30 -19 55 -42 55 -51 0 -9 14 -3 30 13 36 36 40 61 7 41 -16 -10 -20 -4 -12 17 7 19 0 36 -17 43 -17 7 -25 3 -18 -8z"/> <path d="M3345 213 c-3 -33 1 -36 15 -14 12 21 17 11 16 -35 -1 -36 3 -70 10 -77 7 -7 4 -29 -7 -50 -22 -40 65 -58 90 -19 6 10 29 14 51 8 29 -8 40 -1 40 24 0 29 5 31 30 10 25 -20 30 -19 30 8 0 18 16 32 39 32 30 0 38 13 37 62 -2 47 -6 54 -20 30 -10 -18 -35 -32 -55 -32 -20 0 -42 -13 -48 -30 -7 -16 -36 -30 -65 -30 -43 0 -49 5 -29 28 16 20 16 33 2 41 -27 17 -49 -39 -33 -81 8 -20 3 -28 -13 -23 -29 10 -34 150 -5 147 11 -1 25 6 30 16 6 9 -17 19 -51 22 -49 4 -61 -3 -64 -37z"/> <path d="M8959 250 c-2 -11 -2 -29 0 -40 2 -11 -8 -9 -22 5 -30 30 -105 34 -86 4 7 -11 2 -34 -12 -50 -14 -18 -16 -29 -3 -29 11 0 16 -17 10 -38 -7 -26 3 -42 32 -51 23 -8 42 -22 42 -31 0 -10 18 -16 41 -14 44 3 50 88 9 119 -13 9 -9 22 9 33 22 15 24 29 6 65 -12 26 -24 38 -26 27z"/> <path d="M2010 204 c-22 -4 -49 -17 -60 -29 -14 -14 -11 -16 10 -4 26 14 26 12 3 -17 -23 -28 -22 -38 5 -65 18 -17 32 -36 32 -40 0 -16 -50 1 -65 21 -8 11 -15 2 -15 -20 0 -37 14 -40 211 -42 115 -1 205 2 200 8 -6 6 -1 22 11 37 21 24 -43 67 -101 67 -9 0 -22 22 -29 50 -20 79 -44 58 -35 -30 6 -63 15 -80 46 -80 22 0 34 -9 27 -20 -8 -13 -25 -13 -49 -1 -19 11 -41 14 -48 7 -14 -13 -73 31 -73 55 0 9 16 20 35 25 27 7 25 10 -9 12 -24 1 -49 10 -55 20 -6 10 6 14 27 8 20 -5 44 2 53 15 10 17 7 20 -9 10 -13 -8 -35 -6 -48 4 -13 10 -42 14 -64 9z"/> <path d="M8633 207 c-29 -29 -10 -49 40 -43 30 3 56 17 59 32 3 14 0 16 -5 5 -6 -12 -19 -21 -30 -21 -11 0 -14 9 -7 20 14 22 -35 28 -57 7z"/> <path d="M5460 180 c0 -11 13 -20 28 -20 15 0 33 -13 39 -28 6 -17 32 -26 62 -23 29 3 57 -2 63 -12 19 -31 48 -18 48 23 0 22 -10 40 -21 40 -12 0 -15 -11 -7 -25 11 -19 8 -20 -12 -2 -13 13 -37 19 -52 14 -14 -6 -47 4 -72 21 -52 37 -76 41 -76 12z"/> <path d="M6812 110 c0 -49 -6 -90 -15 -90 -10 0 -17 10 -17 21 0 12 -9 16 -20 9 -37 -23 -21 -50 30 -50 28 0 50 9 50 20 0 11 13 20 29 20 27 0 27 60 1 135 -22 63 -60 21 -58 -65z"/> <path d="M7859 172 c11 -14 16 -30 10 -36 -6 -6 18 -16 53 -23 50 -10 58 -19 41 -40 -13 -15 -16 -34 -8 -43 8 -9 -5 -11 -30 -5 -25 6 -45 3 -45 -8 0 -11 29 -17 65 -13 39 3 63 16 60 31 -3 14 4 25 15 25 11 0 20 -13 20 -30 0 -17 8 -30 19 -30 11 0 11 24 1 60 -10 35 -9 64 1 71 11 6 19 -3 19 -20 0 -17 14 -31 31 -31 27 0 25 9 -9 57 -35 50 -53 56 -152 58 -89 2 -108 -3 -91 -23z"/> <path d="M4862 136 c13 -24 13 -36 -1 -36 -12 0 -21 9 -21 20 0 11 -7 20 -15 20 -8 0 -15 -31 -15 -68 0 -72 114 -103 139 -38 14 38 51 32 52 -9 1 -27 6 -24 20 10 23 59 -44 132 -124 135 -47 2 -52 -2 -35 -34z"/> <path d="M8583 150 c5 -29 -3 -38 -28 -34 -21 3 -35 -7 -35 -26 0 -18 8 -27 18 -21 10 6 22 0 27 -13 5 -16 30 -10 79 20 l71 44 33 -50 c37 -57 21 -69 -20 -15 -22 28 -31 30 -45 8 -10 -14 -23 -26 -30 -25 -7 1 -15 -5 -18 -13 -3 -8 33 -18 80 -21 95 -7 103 8 45 81 -29 37 -52 48 -83 40 -29 -7 -53 2 -72 27 -27 37 -28 37 -22 -2z"/> <path d="M5738 140 c-2 -11 -5 -29 -8 -40 -3 -11 -6 -28 -7 -38 -2 -10 -41 -13 -87 -7 -75 10 -80 8 -55 -20 16 -17 32 -23 36 -13 3 10 20 18 36 18 16 0 24 -8 18 -18 -18 -30 126 -20 151 10 19 24 17 26 -12 15 -25 -9 -32 -6 -22 9 9 15 3 19 -16 12 -23 -9 -28 0 -21 40 6 29 5 52 -1 52 -5 0 -11 -9 -12 -20z"/> <path d="M8176 115 c-47 -72 -55 -108 -25 -108 15 0 23 6 18 15 -17 27 40 31 89 6 27 -14 58 -21 68 -14 25 15 -63 64 -116 66 -22 0 -31 7 -20 15 20 15 37 65 22 65 -4 0 -20 -20 -36 -45z"/> <path d="M4172 86 c-28 -30 -46 -59 -40 -64 6 -6 16 -2 24 10 8 11 35 35 60 52 27 18 38 37 27 44 -11 7 -43 -12 -71 -42z"/> <path d="M4733 89 c7 -17 -3 -42 -22 -56 -30 -22 -29 -24 13 -28 38 -3 46 6 47 56 0 34 -10 59 -25 59 -14 0 -20 -13 -13 -31z"/> <path d="M1293 31 c-7 -19 -1 -31 18 -31 16 0 29 11 29 25 0 15 6 17 15 5 8 -11 33 -23 55 -27 58 -9 13 31 -52 47 -38 9 -56 4 -65 -19z"/> </g> </svg> 